<mxfile host="app.diagrams.net" modified="2023-04-24T01:01:20.100Z" agent="Mozilla/5.0 (Macintosh; Intel Mac OS X 10_15_7) AppleWebKit/537.36 (KHTML, like Gecko) Chrome/112.0.0.0 Safari/537.36" etag="jdowXUBKf_57ZWT-5ODK" version="21.2.1" type="device">
  <diagram name="Page-1" id="pwZZ2oNss37NV0iwysYi">
    <mxGraphModel dx="1908" dy="2332" grid="1" gridSize="10" guides="1" tooltips="1" connect="1" arrows="1" fold="1" page="1" pageScale="1" pageWidth="850" pageHeight="1100" math="0" shadow="0">
      <root>
        <mxCell id="0" />
        <mxCell id="1" parent="0" />
        <mxCell id="L3UGM07HQzFSUhVb4tMJ-1" value="Location" style="swimlane;fontStyle=1;align=center;verticalAlign=top;childLayout=stackLayout;horizontal=1;startSize=26;horizontalStack=0;resizeParent=1;resizeParentMax=0;resizeLast=0;collapsible=1;marginBottom=0;whiteSpace=wrap;html=1;" parent="1" vertex="1">
          <mxGeometry x="1110" y="-990" width="210" height="110" as="geometry" />
        </mxCell>
        <mxCell id="L3UGM07HQzFSUhVb4tMJ-2" value="Loc name : String" style="text;strokeColor=none;fillColor=none;align=left;verticalAlign=top;spacingLeft=4;spacingRight=4;overflow=hidden;rotatable=0;points=[[0,0.5],[1,0.5]];portConstraint=eastwest;whiteSpace=wrap;html=1;" parent="L3UGM07HQzFSUhVb4tMJ-1" vertex="1">
          <mxGeometry y="26" width="210" height="26" as="geometry" />
        </mxCell>
        <mxCell id="L3UGM07HQzFSUhVb4tMJ-6" value="EnterpriseCatalogDirectory :&amp;nbsp; Object" style="text;strokeColor=none;fillColor=none;align=left;verticalAlign=top;spacingLeft=4;spacingRight=4;overflow=hidden;rotatable=0;points=[[0,0.5],[1,0.5]];portConstraint=eastwest;whiteSpace=wrap;html=1;" parent="L3UGM07HQzFSUhVb4tMJ-1" vertex="1">
          <mxGeometry y="52" width="210" height="26" as="geometry" />
        </mxCell>
        <mxCell id="L3UGM07HQzFSUhVb4tMJ-3" value="" style="line;strokeWidth=1;fillColor=none;align=left;verticalAlign=middle;spacingTop=-1;spacingLeft=3;spacingRight=3;rotatable=0;labelPosition=right;points=[];portConstraint=eastwest;strokeColor=inherit;" parent="L3UGM07HQzFSUhVb4tMJ-1" vertex="1">
          <mxGeometry y="78" width="210" height="8" as="geometry" />
        </mxCell>
        <mxCell id="L3UGM07HQzFSUhVb4tMJ-7" style="text;strokeColor=none;fillColor=none;align=left;verticalAlign=top;spacingLeft=4;spacingRight=4;overflow=hidden;rotatable=0;points=[[0,0.5],[1,0.5]];portConstraint=eastwest;whiteSpace=wrap;html=1;" parent="L3UGM07HQzFSUhVb4tMJ-1" vertex="1">
          <mxGeometry y="86" width="210" height="24" as="geometry" />
        </mxCell>
        <mxCell id="L3UGM07HQzFSUhVb4tMJ-8" value="EnterpriseCatalog" style="swimlane;fontStyle=1;align=center;verticalAlign=top;childLayout=stackLayout;horizontal=1;startSize=26;horizontalStack=0;resizeParent=1;resizeParentMax=0;resizeLast=0;collapsible=1;marginBottom=0;whiteSpace=wrap;html=1;" parent="1" vertex="1">
          <mxGeometry x="1142.5" y="-580" width="190" height="86" as="geometry" />
        </mxCell>
        <mxCell id="L3UGM07HQzFSUhVb4tMJ-9" value="name : String" style="text;strokeColor=none;fillColor=none;align=left;verticalAlign=top;spacingLeft=4;spacingRight=4;overflow=hidden;rotatable=0;points=[[0,0.5],[1,0.5]];portConstraint=eastwest;whiteSpace=wrap;html=1;" parent="L3UGM07HQzFSUhVb4tMJ-8" vertex="1">
          <mxGeometry y="26" width="190" height="26" as="geometry" />
        </mxCell>
        <mxCell id="L3UGM07HQzFSUhVb4tMJ-12" value="contact : String" style="text;strokeColor=none;fillColor=none;align=left;verticalAlign=top;spacingLeft=4;spacingRight=4;overflow=hidden;rotatable=0;points=[[0,0.5],[1,0.5]];portConstraint=eastwest;whiteSpace=wrap;html=1;" parent="L3UGM07HQzFSUhVb4tMJ-8" vertex="1">
          <mxGeometry y="52" width="190" height="26" as="geometry" />
        </mxCell>
        <mxCell id="L3UGM07HQzFSUhVb4tMJ-10" value="" style="line;strokeWidth=1;fillColor=none;align=left;verticalAlign=middle;spacingTop=-1;spacingLeft=3;spacingRight=3;rotatable=0;labelPosition=right;points=[];portConstraint=eastwest;strokeColor=inherit;" parent="L3UGM07HQzFSUhVb4tMJ-8" vertex="1">
          <mxGeometry y="78" width="190" height="8" as="geometry" />
        </mxCell>
        <mxCell id="CcEaX48VEPUPv7ju-uAB-81" style="edgeStyle=orthogonalEdgeStyle;rounded=0;orthogonalLoop=1;jettySize=auto;html=1;entryX=0.714;entryY=1.038;entryDx=0;entryDy=0;entryPerimeter=0;" edge="1" parent="1" source="L3UGM07HQzFSUhVb4tMJ-13" target="L_-zKKLFFjSHP7eHTm17-28">
          <mxGeometry relative="1" as="geometry" />
        </mxCell>
        <mxCell id="CcEaX48VEPUPv7ju-uAB-85" style="edgeStyle=orthogonalEdgeStyle;rounded=0;orthogonalLoop=1;jettySize=auto;html=1;" edge="1" parent="1" source="L3UGM07HQzFSUhVb4tMJ-13">
          <mxGeometry relative="1" as="geometry">
            <mxPoint x="780" y="100" as="targetPoint" />
          </mxGeometry>
        </mxCell>
        <mxCell id="L3UGM07HQzFSUhVb4tMJ-13" value="Manager" style="swimlane;fontStyle=1;align=center;verticalAlign=top;childLayout=stackLayout;horizontal=1;startSize=26;horizontalStack=0;resizeParent=1;resizeParentMax=0;resizeLast=0;collapsible=1;marginBottom=0;whiteSpace=wrap;html=1;" parent="1" vertex="1">
          <mxGeometry x="575" y="240" width="200" height="112" as="geometry" />
        </mxCell>
        <mxCell id="L3UGM07HQzFSUhVb4tMJ-14" value="User_name : String" style="text;strokeColor=none;fillColor=none;align=left;verticalAlign=top;spacingLeft=4;spacingRight=4;overflow=hidden;rotatable=0;points=[[0,0.5],[1,0.5]];portConstraint=eastwest;whiteSpace=wrap;html=1;" parent="L3UGM07HQzFSUhVb4tMJ-13" vertex="1">
          <mxGeometry y="26" width="200" height="26" as="geometry" />
        </mxCell>
        <mxCell id="L3UGM07HQzFSUhVb4tMJ-17" value="contact : String" style="text;strokeColor=none;fillColor=none;align=left;verticalAlign=top;spacingLeft=4;spacingRight=4;overflow=hidden;rotatable=0;points=[[0,0.5],[1,0.5]];portConstraint=eastwest;whiteSpace=wrap;html=1;" parent="L3UGM07HQzFSUhVb4tMJ-13" vertex="1">
          <mxGeometry y="52" width="200" height="26" as="geometry" />
        </mxCell>
        <mxCell id="L3UGM07HQzFSUhVb4tMJ-20" value="password : String" style="text;strokeColor=none;fillColor=none;align=left;verticalAlign=top;spacingLeft=4;spacingRight=4;overflow=hidden;rotatable=0;points=[[0,0.5],[1,0.5]];portConstraint=eastwest;whiteSpace=wrap;html=1;" parent="L3UGM07HQzFSUhVb4tMJ-13" vertex="1">
          <mxGeometry y="78" width="200" height="26" as="geometry" />
        </mxCell>
        <mxCell id="L3UGM07HQzFSUhVb4tMJ-15" value="" style="line;strokeWidth=1;fillColor=none;align=left;verticalAlign=middle;spacingTop=-1;spacingLeft=3;spacingRight=3;rotatable=0;labelPosition=right;points=[];portConstraint=eastwest;strokeColor=inherit;" parent="L3UGM07HQzFSUhVb4tMJ-13" vertex="1">
          <mxGeometry y="104" width="200" height="8" as="geometry" />
        </mxCell>
        <mxCell id="L3UGM07HQzFSUhVb4tMJ-21" value="Customer" style="swimlane;fontStyle=1;align=center;verticalAlign=top;childLayout=stackLayout;horizontal=1;startSize=26;horizontalStack=0;resizeParent=1;resizeParentMax=0;resizeLast=0;collapsible=1;marginBottom=0;whiteSpace=wrap;html=1;" parent="1" vertex="1">
          <mxGeometry x="220" y="-680" width="280" height="242" as="geometry" />
        </mxCell>
        <mxCell id="L3UGM07HQzFSUhVb4tMJ-22" value="name : String" style="text;strokeColor=none;fillColor=none;align=left;verticalAlign=top;spacingLeft=4;spacingRight=4;overflow=hidden;rotatable=0;points=[[0,0.5],[1,0.5]];portConstraint=eastwest;whiteSpace=wrap;html=1;" parent="L3UGM07HQzFSUhVb4tMJ-21" vertex="1">
          <mxGeometry y="26" width="280" height="26" as="geometry" />
        </mxCell>
        <mxCell id="L3UGM07HQzFSUhVb4tMJ-30" value="contact : String" style="text;strokeColor=none;fillColor=none;align=left;verticalAlign=top;spacingLeft=4;spacingRight=4;overflow=hidden;rotatable=0;points=[[0,0.5],[1,0.5]];portConstraint=eastwest;whiteSpace=wrap;html=1;" parent="L3UGM07HQzFSUhVb4tMJ-21" vertex="1">
          <mxGeometry y="52" width="280" height="26" as="geometry" />
        </mxCell>
        <mxCell id="L3UGM07HQzFSUhVb4tMJ-29" value="address : String" style="text;strokeColor=none;fillColor=none;align=left;verticalAlign=top;spacingLeft=4;spacingRight=4;overflow=hidden;rotatable=0;points=[[0,0.5],[1,0.5]];portConstraint=eastwest;whiteSpace=wrap;html=1;" parent="L3UGM07HQzFSUhVb4tMJ-21" vertex="1">
          <mxGeometry y="78" width="280" height="26" as="geometry" />
        </mxCell>
        <mxCell id="L3UGM07HQzFSUhVb4tMJ-28" value="city : String" style="text;strokeColor=none;fillColor=none;align=left;verticalAlign=top;spacingLeft=4;spacingRight=4;overflow=hidden;rotatable=0;points=[[0,0.5],[1,0.5]];portConstraint=eastwest;whiteSpace=wrap;html=1;" parent="L3UGM07HQzFSUhVb4tMJ-21" vertex="1">
          <mxGeometry y="104" width="280" height="26" as="geometry" />
        </mxCell>
        <mxCell id="L3UGM07HQzFSUhVb4tMJ-27" value="userName : String" style="text;strokeColor=none;fillColor=none;align=left;verticalAlign=top;spacingLeft=4;spacingRight=4;overflow=hidden;rotatable=0;points=[[0,0.5],[1,0.5]];portConstraint=eastwest;whiteSpace=wrap;html=1;" parent="L3UGM07HQzFSUhVb4tMJ-21" vertex="1">
          <mxGeometry y="130" width="280" height="26" as="geometry" />
        </mxCell>
        <mxCell id="L3UGM07HQzFSUhVb4tMJ-26" value="password : String" style="text;strokeColor=none;fillColor=none;align=left;verticalAlign=top;spacingLeft=4;spacingRight=4;overflow=hidden;rotatable=0;points=[[0,0.5],[1,0.5]];portConstraint=eastwest;whiteSpace=wrap;html=1;" parent="L3UGM07HQzFSUhVb4tMJ-21" vertex="1">
          <mxGeometry y="156" width="280" height="26" as="geometry" />
        </mxCell>
        <mxCell id="L3UGM07HQzFSUhVb4tMJ-31" value="List&amp;lt;PSH_RoomBooking&amp;gt; : ArrayList" style="text;strokeColor=none;fillColor=none;align=left;verticalAlign=top;spacingLeft=4;spacingRight=4;overflow=hidden;rotatable=0;points=[[0,0.5],[1,0.5]];portConstraint=eastwest;whiteSpace=wrap;html=1;" parent="L3UGM07HQzFSUhVb4tMJ-21" vertex="1">
          <mxGeometry y="182" width="280" height="26" as="geometry" />
        </mxCell>
        <mxCell id="L3UGM07HQzFSUhVb4tMJ-23" value="" style="line;strokeWidth=1;fillColor=none;align=left;verticalAlign=middle;spacingTop=-1;spacingLeft=3;spacingRight=3;rotatable=0;labelPosition=right;points=[];portConstraint=eastwest;strokeColor=inherit;" parent="L3UGM07HQzFSUhVb4tMJ-21" vertex="1">
          <mxGeometry y="208" width="280" height="8" as="geometry" />
        </mxCell>
        <mxCell id="L3UGM07HQzFSUhVb4tMJ-24" value="addBooking()" style="text;strokeColor=none;fillColor=none;align=left;verticalAlign=top;spacingLeft=4;spacingRight=4;overflow=hidden;rotatable=0;points=[[0,0.5],[1,0.5]];portConstraint=eastwest;whiteSpace=wrap;html=1;" parent="L3UGM07HQzFSUhVb4tMJ-21" vertex="1">
          <mxGeometry y="216" width="280" height="26" as="geometry" />
        </mxCell>
        <mxCell id="L3UGM07HQzFSUhVb4tMJ-34" value="Hotel" style="swimlane;fontStyle=1;align=center;verticalAlign=top;childLayout=stackLayout;horizontal=1;startSize=26;horizontalStack=0;resizeParent=1;resizeParentMax=0;resizeLast=0;collapsible=1;marginBottom=0;whiteSpace=wrap;html=1;" parent="1" vertex="1">
          <mxGeometry x="150" y="-305" width="220" height="372" as="geometry" />
        </mxCell>
        <mxCell id="L3UGM07HQzFSUhVb4tMJ-35" value="RoomsList : String" style="text;strokeColor=none;fillColor=none;align=left;verticalAlign=top;spacingLeft=4;spacingRight=4;overflow=hidden;rotatable=0;points=[[0,0.5],[1,0.5]];portConstraint=eastwest;whiteSpace=wrap;html=1;" parent="L3UGM07HQzFSUhVb4tMJ-34" vertex="1">
          <mxGeometry y="26" width="220" height="26" as="geometry" />
        </mxCell>
        <mxCell id="L3UGM07HQzFSUhVb4tMJ-39" value="List&amp;lt;PSH_Manager&amp;gt; : ArrayList" style="text;strokeColor=none;fillColor=none;align=left;verticalAlign=top;spacingLeft=4;spacingRight=4;overflow=hidden;rotatable=0;points=[[0,0.5],[1,0.5]];portConstraint=eastwest;whiteSpace=wrap;html=1;" parent="L3UGM07HQzFSUhVb4tMJ-34" vertex="1">
          <mxGeometry y="52" width="220" height="26" as="geometry" />
        </mxCell>
        <mxCell id="L3UGM07HQzFSUhVb4tMJ-41" value="List&amp;lt;PSH_TourGuideOrg&amp;gt; : ArrayList" style="text;strokeColor=none;fillColor=none;align=left;verticalAlign=top;spacingLeft=4;spacingRight=4;overflow=hidden;rotatable=0;points=[[0,0.5],[1,0.5]];portConstraint=eastwest;whiteSpace=wrap;html=1;" parent="L3UGM07HQzFSUhVb4tMJ-34" vertex="1">
          <mxGeometry y="78" width="220" height="26" as="geometry" />
        </mxCell>
        <mxCell id="L3UGM07HQzFSUhVb4tMJ-40" value="List&amp;lt;PSH_SafariOrg&amp;gt; : ArrayList" style="text;strokeColor=none;fillColor=none;align=left;verticalAlign=top;spacingLeft=4;spacingRight=4;overflow=hidden;rotatable=0;points=[[0,0.5],[1,0.5]];portConstraint=eastwest;whiteSpace=wrap;html=1;" parent="L3UGM07HQzFSUhVb4tMJ-34" vertex="1">
          <mxGeometry y="104" width="220" height="26" as="geometry" />
        </mxCell>
        <mxCell id="L3UGM07HQzFSUhVb4tMJ-36" value="" style="line;strokeWidth=1;fillColor=none;align=left;verticalAlign=middle;spacingTop=-1;spacingLeft=3;spacingRight=3;rotatable=0;labelPosition=right;points=[];portConstraint=eastwest;strokeColor=inherit;" parent="L3UGM07HQzFSUhVb4tMJ-34" vertex="1">
          <mxGeometry y="130" width="220" height="8" as="geometry" />
        </mxCell>
        <mxCell id="L3UGM07HQzFSUhVb4tMJ-38" value="availableRooms()" style="text;strokeColor=none;fillColor=none;align=left;verticalAlign=top;spacingLeft=4;spacingRight=4;overflow=hidden;rotatable=0;points=[[0,0.5],[1,0.5]];portConstraint=eastwest;whiteSpace=wrap;html=1;" parent="L3UGM07HQzFSUhVb4tMJ-34" vertex="1">
          <mxGeometry y="138" width="220" height="26" as="geometry" />
        </mxCell>
        <mxCell id="L_-zKKLFFjSHP7eHTm17-25" value="bookRooms()" style="text;strokeColor=none;fillColor=none;align=left;verticalAlign=top;spacingLeft=4;spacingRight=4;overflow=hidden;rotatable=0;points=[[0,0.5],[1,0.5]];portConstraint=eastwest;whiteSpace=wrap;html=1;" parent="L3UGM07HQzFSUhVb4tMJ-34" vertex="1">
          <mxGeometry y="164" width="220" height="26" as="geometry" />
        </mxCell>
        <mxCell id="L_-zKKLFFjSHP7eHTm17-24" value="addManager()" style="text;strokeColor=none;fillColor=none;align=left;verticalAlign=top;spacingLeft=4;spacingRight=4;overflow=hidden;rotatable=0;points=[[0,0.5],[1,0.5]];portConstraint=eastwest;whiteSpace=wrap;html=1;" parent="L3UGM07HQzFSUhVb4tMJ-34" vertex="1">
          <mxGeometry y="190" width="220" height="26" as="geometry" />
        </mxCell>
        <mxCell id="L_-zKKLFFjSHP7eHTm17-23" value="&lt;meta charset=&quot;utf-8&quot;&gt;&lt;span style=&quot;color: rgb(0, 0, 0); font-family: Helvetica; font-size: 12px; font-style: normal; font-variant-ligatures: normal; font-variant-caps: normal; font-weight: 400; letter-spacing: normal; orphans: 2; text-align: left; text-indent: 0px; text-transform: none; widows: 2; word-spacing: 0px; -webkit-text-stroke-width: 0px; background-color: rgb(251, 251, 251); text-decoration-thickness: initial; text-decoration-style: initial; text-decoration-color: initial; float: none; display: inline !important;&quot;&gt;DeleteManager()&lt;/span&gt;" style="text;strokeColor=none;fillColor=none;align=left;verticalAlign=top;spacingLeft=4;spacingRight=4;overflow=hidden;rotatable=0;points=[[0,0.5],[1,0.5]];portConstraint=eastwest;whiteSpace=wrap;html=1;" parent="L3UGM07HQzFSUhVb4tMJ-34" vertex="1">
          <mxGeometry y="216" width="220" height="26" as="geometry" />
        </mxCell>
        <mxCell id="L_-zKKLFFjSHP7eHTm17-27" value="&lt;meta charset=&quot;utf-8&quot;&gt;&lt;span style=&quot;color: rgb(0, 0, 0); font-family: Helvetica; font-size: 12px; font-style: normal; font-variant-ligatures: normal; font-variant-caps: normal; font-weight: 400; letter-spacing: normal; orphans: 2; text-align: left; text-indent: 0px; text-transform: none; widows: 2; word-spacing: 0px; -webkit-text-stroke-width: 0px; background-color: rgb(251, 251, 251); text-decoration-thickness: initial; text-decoration-style: initial; text-decoration-color: initial; float: none; display: inline !important;&quot;&gt;findManager()&lt;/span&gt;" style="text;strokeColor=none;fillColor=none;align=left;verticalAlign=top;spacingLeft=4;spacingRight=4;overflow=hidden;rotatable=0;points=[[0,0.5],[1,0.5]];portConstraint=eastwest;whiteSpace=wrap;html=1;" parent="L3UGM07HQzFSUhVb4tMJ-34" vertex="1">
          <mxGeometry y="242" width="220" height="26" as="geometry" />
        </mxCell>
        <mxCell id="L_-zKKLFFjSHP7eHTm17-26" value="addTourGuideORG()" style="text;strokeColor=none;fillColor=none;align=left;verticalAlign=top;spacingLeft=4;spacingRight=4;overflow=hidden;rotatable=0;points=[[0,0.5],[1,0.5]];portConstraint=eastwest;whiteSpace=wrap;html=1;" parent="L3UGM07HQzFSUhVb4tMJ-34" vertex="1">
          <mxGeometry y="268" width="220" height="26" as="geometry" />
        </mxCell>
        <mxCell id="L_-zKKLFFjSHP7eHTm17-30" value="addSafariOrg()" style="text;strokeColor=none;fillColor=none;align=left;verticalAlign=top;spacingLeft=4;spacingRight=4;overflow=hidden;rotatable=0;points=[[0,0.5],[1,0.5]];portConstraint=eastwest;whiteSpace=wrap;html=1;" parent="L3UGM07HQzFSUhVb4tMJ-34" vertex="1">
          <mxGeometry y="294" width="220" height="26" as="geometry" />
        </mxCell>
        <mxCell id="L_-zKKLFFjSHP7eHTm17-29" value="deleteTourGuide()" style="text;strokeColor=none;fillColor=none;align=left;verticalAlign=top;spacingLeft=4;spacingRight=4;overflow=hidden;rotatable=0;points=[[0,0.5],[1,0.5]];portConstraint=eastwest;whiteSpace=wrap;html=1;" parent="L3UGM07HQzFSUhVb4tMJ-34" vertex="1">
          <mxGeometry y="320" width="220" height="26" as="geometry" />
        </mxCell>
        <mxCell id="L_-zKKLFFjSHP7eHTm17-28" value="deleteSafari()" style="text;strokeColor=none;fillColor=none;align=left;verticalAlign=top;spacingLeft=4;spacingRight=4;overflow=hidden;rotatable=0;points=[[0,0.5],[1,0.5]];portConstraint=eastwest;whiteSpace=wrap;html=1;" parent="L3UGM07HQzFSUhVb4tMJ-34" vertex="1">
          <mxGeometry y="346" width="220" height="26" as="geometry" />
        </mxCell>
        <mxCell id="L_-zKKLFFjSHP7eHTm17-3" value="Celebration(Bday, Wedding, Anniversary)" style="swimlane;fontStyle=1;align=center;verticalAlign=top;childLayout=stackLayout;horizontal=1;startSize=26;horizontalStack=0;resizeParent=1;resizeParentMax=0;resizeLast=0;collapsible=1;marginBottom=0;whiteSpace=wrap;html=1;" parent="1" vertex="1">
          <mxGeometry x="540" y="-305" width="270" height="398" as="geometry" />
        </mxCell>
        <mxCell id="L_-zKKLFFjSHP7eHTm17-4" value="Date: date" style="text;strokeColor=none;fillColor=none;align=left;verticalAlign=top;spacingLeft=4;spacingRight=4;overflow=hidden;rotatable=0;points=[[0,0.5],[1,0.5]];portConstraint=eastwest;whiteSpace=wrap;html=1;" parent="L_-zKKLFFjSHP7eHTm17-3" vertex="1">
          <mxGeometry y="26" width="270" height="26" as="geometry" />
        </mxCell>
        <mxCell id="L_-zKKLFFjSHP7eHTm17-5" value="&lt;span style=&quot;color: rgb(0, 0, 0); font-family: Helvetica; font-size: 12px; font-style: normal; font-variant-ligatures: normal; font-variant-caps: normal; font-weight: 400; letter-spacing: normal; orphans: 2; text-align: left; text-indent: 0px; text-transform: none; widows: 2; word-spacing: 0px; -webkit-text-stroke-width: 0px; background-color: rgb(251, 251, 251); text-decoration-thickness: initial; text-decoration-style: initial; text-decoration-color: initial; float: none; display: inline !important;&quot;&gt;List&amp;lt;PSH_Manager&amp;gt; : ArrayList&lt;/span&gt;" style="text;strokeColor=none;fillColor=none;align=left;verticalAlign=top;spacingLeft=4;spacingRight=4;overflow=hidden;rotatable=0;points=[[0,0.5],[1,0.5]];portConstraint=eastwest;whiteSpace=wrap;html=1;" parent="L_-zKKLFFjSHP7eHTm17-3" vertex="1">
          <mxGeometry y="52" width="270" height="26" as="geometry" />
        </mxCell>
        <mxCell id="L_-zKKLFFjSHP7eHTm17-6" value="&lt;span style=&quot;color: rgb(0, 0, 0); font-family: Helvetica; font-size: 12px; font-style: normal; font-variant-ligatures: normal; font-variant-caps: normal; font-weight: 400; letter-spacing: normal; orphans: 2; text-align: left; text-indent: 0px; text-transform: none; widows: 2; word-spacing: 0px; -webkit-text-stroke-width: 0px; background-color: rgb(251, 251, 251); text-decoration-thickness: initial; text-decoration-style: initial; text-decoration-color: initial; float: none; display: inline !important;&quot;&gt;List&amp;lt;PSH_Celebration_Bday&amp;gt; : ArrayList&lt;/span&gt;" style="text;strokeColor=none;fillColor=none;align=left;verticalAlign=top;spacingLeft=4;spacingRight=4;overflow=hidden;rotatable=0;points=[[0,0.5],[1,0.5]];portConstraint=eastwest;whiteSpace=wrap;html=1;" parent="L_-zKKLFFjSHP7eHTm17-3" vertex="1">
          <mxGeometry y="78" width="270" height="26" as="geometry" />
        </mxCell>
        <mxCell id="L_-zKKLFFjSHP7eHTm17-11" value="List&amp;lt;PSH_Celebration_Wedding&amp;gt; : ArrayList" style="text;strokeColor=none;fillColor=none;align=left;verticalAlign=top;spacingLeft=4;spacingRight=4;overflow=hidden;rotatable=0;points=[[0,0.5],[1,0.5]];portConstraint=eastwest;whiteSpace=wrap;html=1;" parent="L_-zKKLFFjSHP7eHTm17-3" vertex="1">
          <mxGeometry y="104" width="270" height="26" as="geometry" />
        </mxCell>
        <mxCell id="L_-zKKLFFjSHP7eHTm17-12" value="List&amp;lt;PSH_Celebration_Anniversary&amp;gt; : ArrayList" style="text;strokeColor=none;fillColor=none;align=left;verticalAlign=top;spacingLeft=4;spacingRight=4;overflow=hidden;rotatable=0;points=[[0,0.5],[1,0.5]];portConstraint=eastwest;whiteSpace=wrap;html=1;" parent="L_-zKKLFFjSHP7eHTm17-3" vertex="1">
          <mxGeometry y="130" width="270" height="26" as="geometry" />
        </mxCell>
        <mxCell id="L_-zKKLFFjSHP7eHTm17-7" value="" style="line;strokeWidth=1;fillColor=none;align=left;verticalAlign=middle;spacingTop=-1;spacingLeft=3;spacingRight=3;rotatable=0;labelPosition=right;points=[];portConstraint=eastwest;strokeColor=inherit;" parent="L_-zKKLFFjSHP7eHTm17-3" vertex="1">
          <mxGeometry y="156" width="270" height="8" as="geometry" />
        </mxCell>
        <mxCell id="L_-zKKLFFjSHP7eHTm17-8" value="AddManager()" style="text;strokeColor=none;fillColor=none;align=left;verticalAlign=top;spacingLeft=4;spacingRight=4;overflow=hidden;rotatable=0;points=[[0,0.5],[1,0.5]];portConstraint=eastwest;whiteSpace=wrap;html=1;" parent="L_-zKKLFFjSHP7eHTm17-3" vertex="1">
          <mxGeometry y="164" width="270" height="26" as="geometry" />
        </mxCell>
        <mxCell id="L_-zKKLFFjSHP7eHTm17-9" value="DeleteManager()" style="text;strokeColor=none;fillColor=none;align=left;verticalAlign=top;spacingLeft=4;spacingRight=4;overflow=hidden;rotatable=0;points=[[0,0.5],[1,0.5]];portConstraint=eastwest;whiteSpace=wrap;html=1;" parent="L_-zKKLFFjSHP7eHTm17-3" vertex="1">
          <mxGeometry y="190" width="270" height="26" as="geometry" />
        </mxCell>
        <mxCell id="L_-zKKLFFjSHP7eHTm17-17" value="findManager()" style="text;strokeColor=none;fillColor=none;align=left;verticalAlign=top;spacingLeft=4;spacingRight=4;overflow=hidden;rotatable=0;points=[[0,0.5],[1,0.5]];portConstraint=eastwest;whiteSpace=wrap;html=1;" parent="L_-zKKLFFjSHP7eHTm17-3" vertex="1">
          <mxGeometry y="216" width="270" height="26" as="geometry" />
        </mxCell>
        <mxCell id="L_-zKKLFFjSHP7eHTm17-16" value="addBirthday()" style="text;strokeColor=none;fillColor=none;align=left;verticalAlign=top;spacingLeft=4;spacingRight=4;overflow=hidden;rotatable=0;points=[[0,0.5],[1,0.5]];portConstraint=eastwest;whiteSpace=wrap;html=1;" parent="L_-zKKLFFjSHP7eHTm17-3" vertex="1">
          <mxGeometry y="242" width="270" height="26" as="geometry" />
        </mxCell>
        <mxCell id="L_-zKKLFFjSHP7eHTm17-15" value="addWeddings()" style="text;strokeColor=none;fillColor=none;align=left;verticalAlign=top;spacingLeft=4;spacingRight=4;overflow=hidden;rotatable=0;points=[[0,0.5],[1,0.5]];portConstraint=eastwest;whiteSpace=wrap;html=1;" parent="L_-zKKLFFjSHP7eHTm17-3" vertex="1">
          <mxGeometry y="268" width="270" height="26" as="geometry" />
        </mxCell>
        <mxCell id="L_-zKKLFFjSHP7eHTm17-14" value="addAnniversaries()" style="text;strokeColor=none;fillColor=none;align=left;verticalAlign=top;spacingLeft=4;spacingRight=4;overflow=hidden;rotatable=0;points=[[0,0.5],[1,0.5]];portConstraint=eastwest;whiteSpace=wrap;html=1;" parent="L_-zKKLFFjSHP7eHTm17-3" vertex="1">
          <mxGeometry y="294" width="270" height="26" as="geometry" />
        </mxCell>
        <mxCell id="L_-zKKLFFjSHP7eHTm17-13" value="deleteBirthdayParty()" style="text;strokeColor=none;fillColor=none;align=left;verticalAlign=top;spacingLeft=4;spacingRight=4;overflow=hidden;rotatable=0;points=[[0,0.5],[1,0.5]];portConstraint=eastwest;whiteSpace=wrap;html=1;" parent="L_-zKKLFFjSHP7eHTm17-3" vertex="1">
          <mxGeometry y="320" width="270" height="26" as="geometry" />
        </mxCell>
        <mxCell id="L_-zKKLFFjSHP7eHTm17-10" value="deleteWeddingServices()" style="text;strokeColor=none;fillColor=none;align=left;verticalAlign=top;spacingLeft=4;spacingRight=4;overflow=hidden;rotatable=0;points=[[0,0.5],[1,0.5]];portConstraint=eastwest;whiteSpace=wrap;html=1;" parent="L_-zKKLFFjSHP7eHTm17-3" vertex="1">
          <mxGeometry y="346" width="270" height="26" as="geometry" />
        </mxCell>
        <mxCell id="L_-zKKLFFjSHP7eHTm17-18" value="deleteAnniversary()" style="text;strokeColor=none;fillColor=none;align=left;verticalAlign=top;spacingLeft=4;spacingRight=4;overflow=hidden;rotatable=0;points=[[0,0.5],[1,0.5]];portConstraint=eastwest;whiteSpace=wrap;html=1;" parent="L_-zKKLFFjSHP7eHTm17-3" vertex="1">
          <mxGeometry y="372" width="270" height="26" as="geometry" />
        </mxCell>
        <mxCell id="CcEaX48VEPUPv7ju-uAB-52" style="edgeStyle=orthogonalEdgeStyle;rounded=0;orthogonalLoop=1;jettySize=auto;html=1;entryX=1;entryY=0.5;entryDx=0;entryDy=0;" edge="1" parent="1" source="L_-zKKLFFjSHP7eHTm17-19" target="CcEaX48VEPUPv7ju-uAB-47">
          <mxGeometry relative="1" as="geometry" />
        </mxCell>
        <mxCell id="CcEaX48VEPUPv7ju-uAB-63" style="edgeStyle=orthogonalEdgeStyle;rounded=0;orthogonalLoop=1;jettySize=auto;html=1;entryX=0.5;entryY=0;entryDx=0;entryDy=0;" edge="1" parent="1" source="L_-zKKLFFjSHP7eHTm17-19" target="L_-zKKLFFjSHP7eHTm17-67">
          <mxGeometry relative="1" as="geometry" />
        </mxCell>
        <mxCell id="L_-zKKLFFjSHP7eHTm17-19" value="Restaurant" style="swimlane;fontStyle=1;align=center;verticalAlign=top;childLayout=stackLayout;horizontal=1;startSize=26;horizontalStack=0;resizeParent=1;resizeParentMax=0;resizeLast=0;collapsible=1;marginBottom=0;whiteSpace=wrap;html=1;" parent="1" vertex="1">
          <mxGeometry x="890" y="-220" width="270" height="290" as="geometry" />
        </mxCell>
        <mxCell id="L_-zKKLFFjSHP7eHTm17-20" value="List&amp;lt;PSH_Manager&amp;gt; : ArrayList" style="text;strokeColor=none;fillColor=none;align=left;verticalAlign=top;spacingLeft=4;spacingRight=4;overflow=hidden;rotatable=0;points=[[0,0.5],[1,0.5]];portConstraint=eastwest;whiteSpace=wrap;html=1;" parent="L_-zKKLFFjSHP7eHTm17-19" vertex="1">
          <mxGeometry y="26" width="270" height="26" as="geometry" />
        </mxCell>
        <mxCell id="L_-zKKLFFjSHP7eHTm17-33" value="List&amp;lt;PSH_Restaurant_orders&amp;gt; : ArrayList" style="text;strokeColor=none;fillColor=none;align=left;verticalAlign=top;spacingLeft=4;spacingRight=4;overflow=hidden;rotatable=0;points=[[0,0.5],[1,0.5]];portConstraint=eastwest;whiteSpace=wrap;html=1;" parent="L_-zKKLFFjSHP7eHTm17-19" vertex="1">
          <mxGeometry y="52" width="270" height="26" as="geometry" />
        </mxCell>
        <mxCell id="L_-zKKLFFjSHP7eHTm17-32" value="List&amp;lt;PSH_Restaurant_Menu&amp;gt; : ArrayList" style="text;strokeColor=none;fillColor=none;align=left;verticalAlign=top;spacingLeft=4;spacingRight=4;overflow=hidden;rotatable=0;points=[[0,0.5],[1,0.5]];portConstraint=eastwest;whiteSpace=wrap;html=1;" parent="L_-zKKLFFjSHP7eHTm17-19" vertex="1">
          <mxGeometry y="78" width="270" height="26" as="geometry" />
        </mxCell>
        <mxCell id="L_-zKKLFFjSHP7eHTm17-31" value="List&amp;lt;PSH_DeliveryAgentOrg&amp;gt; : ArrayList" style="text;strokeColor=none;fillColor=none;align=left;verticalAlign=top;spacingLeft=4;spacingRight=4;overflow=hidden;rotatable=0;points=[[0,0.5],[1,0.5]];portConstraint=eastwest;whiteSpace=wrap;html=1;" parent="L_-zKKLFFjSHP7eHTm17-19" vertex="1">
          <mxGeometry y="104" width="270" height="26" as="geometry" />
        </mxCell>
        <mxCell id="L_-zKKLFFjSHP7eHTm17-21" value="" style="line;strokeWidth=1;fillColor=none;align=left;verticalAlign=middle;spacingTop=-1;spacingLeft=3;spacingRight=3;rotatable=0;labelPosition=right;points=[];portConstraint=eastwest;strokeColor=inherit;" parent="L_-zKKLFFjSHP7eHTm17-19" vertex="1">
          <mxGeometry y="130" width="270" height="8" as="geometry" />
        </mxCell>
        <mxCell id="L_-zKKLFFjSHP7eHTm17-22" value="AddManager()" style="text;strokeColor=none;fillColor=none;align=left;verticalAlign=top;spacingLeft=4;spacingRight=4;overflow=hidden;rotatable=0;points=[[0,0.5],[1,0.5]];portConstraint=eastwest;whiteSpace=wrap;html=1;" parent="L_-zKKLFFjSHP7eHTm17-19" vertex="1">
          <mxGeometry y="138" width="270" height="26" as="geometry" />
        </mxCell>
        <mxCell id="L_-zKKLFFjSHP7eHTm17-36" value="&lt;meta charset=&quot;utf-8&quot;&gt;&lt;span style=&quot;color: rgb(0, 0, 0); font-family: Helvetica; font-size: 12px; font-style: normal; font-variant-ligatures: normal; font-variant-caps: normal; font-weight: 400; letter-spacing: normal; orphans: 2; text-align: left; text-indent: 0px; text-transform: none; widows: 2; word-spacing: 0px; -webkit-text-stroke-width: 0px; background-color: rgb(251, 251, 251); text-decoration-thickness: initial; text-decoration-style: initial; text-decoration-color: initial; float: none; display: inline !important;&quot;&gt;DeleteManager()&lt;/span&gt;" style="text;strokeColor=none;fillColor=none;align=left;verticalAlign=top;spacingLeft=4;spacingRight=4;overflow=hidden;rotatable=0;points=[[0,0.5],[1,0.5]];portConstraint=eastwest;whiteSpace=wrap;html=1;" parent="L_-zKKLFFjSHP7eHTm17-19" vertex="1">
          <mxGeometry y="164" width="270" height="26" as="geometry" />
        </mxCell>
        <mxCell id="L_-zKKLFFjSHP7eHTm17-35" value="&lt;meta charset=&quot;utf-8&quot;&gt;&lt;span style=&quot;color: rgb(0, 0, 0); font-family: Helvetica; font-size: 12px; font-style: normal; font-variant-ligatures: normal; font-variant-caps: normal; font-weight: 400; letter-spacing: normal; orphans: 2; text-align: left; text-indent: 0px; text-transform: none; widows: 2; word-spacing: 0px; -webkit-text-stroke-width: 0px; background-color: rgb(251, 251, 251); text-decoration-thickness: initial; text-decoration-style: initial; text-decoration-color: initial; float: none; display: inline !important;&quot;&gt;findManager()&lt;/span&gt;" style="text;strokeColor=none;fillColor=none;align=left;verticalAlign=top;spacingLeft=4;spacingRight=4;overflow=hidden;rotatable=0;points=[[0,0.5],[1,0.5]];portConstraint=eastwest;whiteSpace=wrap;html=1;" parent="L_-zKKLFFjSHP7eHTm17-19" vertex="1">
          <mxGeometry y="190" width="270" height="26" as="geometry" />
        </mxCell>
        <mxCell id="L_-zKKLFFjSHP7eHTm17-34" value="addDeliveryAgentOrganisation()" style="text;strokeColor=none;fillColor=none;align=left;verticalAlign=top;spacingLeft=4;spacingRight=4;overflow=hidden;rotatable=0;points=[[0,0.5],[1,0.5]];portConstraint=eastwest;whiteSpace=wrap;html=1;" parent="L_-zKKLFFjSHP7eHTm17-19" vertex="1">
          <mxGeometry y="216" width="270" height="26" as="geometry" />
        </mxCell>
        <mxCell id="L_-zKKLFFjSHP7eHTm17-37" value="addMenuItem()" style="text;strokeColor=none;fillColor=none;align=left;verticalAlign=top;spacingLeft=4;spacingRight=4;overflow=hidden;rotatable=0;points=[[0,0.5],[1,0.5]];portConstraint=eastwest;whiteSpace=wrap;html=1;" parent="L_-zKKLFFjSHP7eHTm17-19" vertex="1">
          <mxGeometry y="242" width="270" height="48" as="geometry" />
        </mxCell>
        <mxCell id="L_-zKKLFFjSHP7eHTm17-38" value="Theatre(Magician, Music Band, Standup Comedy)" style="swimlane;fontStyle=1;align=center;verticalAlign=top;childLayout=stackLayout;horizontal=1;startSize=26;horizontalStack=0;resizeParent=1;resizeParentMax=0;resizeLast=0;collapsible=1;marginBottom=0;whiteSpace=wrap;html=1;" parent="1" vertex="1">
          <mxGeometry x="1275" y="-310" width="325" height="372" as="geometry" />
        </mxCell>
        <mxCell id="L_-zKKLFFjSHP7eHTm17-39" value="List&amp;lt;PSH_Manager&amp;gt; : ArrayList" style="text;strokeColor=none;fillColor=none;align=left;verticalAlign=top;spacingLeft=4;spacingRight=4;overflow=hidden;rotatable=0;points=[[0,0.5],[1,0.5]];portConstraint=eastwest;whiteSpace=wrap;html=1;" parent="L_-zKKLFFjSHP7eHTm17-38" vertex="1">
          <mxGeometry y="26" width="325" height="26" as="geometry" />
        </mxCell>
        <mxCell id="L_-zKKLFFjSHP7eHTm17-44" value="List&amp;lt;PSH_Theatre_MagicianOrg&amp;gt; : ArrayList" style="text;strokeColor=none;fillColor=none;align=left;verticalAlign=top;spacingLeft=4;spacingRight=4;overflow=hidden;rotatable=0;points=[[0,0.5],[1,0.5]];portConstraint=eastwest;whiteSpace=wrap;html=1;" parent="L_-zKKLFFjSHP7eHTm17-38" vertex="1">
          <mxGeometry y="52" width="325" height="26" as="geometry" />
        </mxCell>
        <mxCell id="L_-zKKLFFjSHP7eHTm17-43" value="List&amp;lt;PSH_Theatre_MusicBandOrg&amp;gt; : ArrayList" style="text;strokeColor=none;fillColor=none;align=left;verticalAlign=top;spacingLeft=4;spacingRight=4;overflow=hidden;rotatable=0;points=[[0,0.5],[1,0.5]];portConstraint=eastwest;whiteSpace=wrap;html=1;" parent="L_-zKKLFFjSHP7eHTm17-38" vertex="1">
          <mxGeometry y="78" width="325" height="26" as="geometry" />
        </mxCell>
        <mxCell id="L_-zKKLFFjSHP7eHTm17-42" value="List&amp;lt;PSH_Theatre_StandUpComedyOrg&amp;gt; : ArrayList" style="text;strokeColor=none;fillColor=none;align=left;verticalAlign=top;spacingLeft=4;spacingRight=4;overflow=hidden;rotatable=0;points=[[0,0.5],[1,0.5]];portConstraint=eastwest;whiteSpace=wrap;html=1;" parent="L_-zKKLFFjSHP7eHTm17-38" vertex="1">
          <mxGeometry y="104" width="325" height="26" as="geometry" />
        </mxCell>
        <mxCell id="L_-zKKLFFjSHP7eHTm17-40" value="" style="line;strokeWidth=1;fillColor=none;align=left;verticalAlign=middle;spacingTop=-1;spacingLeft=3;spacingRight=3;rotatable=0;labelPosition=right;points=[];portConstraint=eastwest;strokeColor=inherit;" parent="L_-zKKLFFjSHP7eHTm17-38" vertex="1">
          <mxGeometry y="130" width="325" height="8" as="geometry" />
        </mxCell>
        <mxCell id="L_-zKKLFFjSHP7eHTm17-41" value="AddManager()" style="text;strokeColor=none;fillColor=none;align=left;verticalAlign=top;spacingLeft=4;spacingRight=4;overflow=hidden;rotatable=0;points=[[0,0.5],[1,0.5]];portConstraint=eastwest;whiteSpace=wrap;html=1;" parent="L_-zKKLFFjSHP7eHTm17-38" vertex="1">
          <mxGeometry y="138" width="325" height="26" as="geometry" />
        </mxCell>
        <mxCell id="L_-zKKLFFjSHP7eHTm17-50" value="DeleteManager()" style="text;strokeColor=none;fillColor=none;align=left;verticalAlign=top;spacingLeft=4;spacingRight=4;overflow=hidden;rotatable=0;points=[[0,0.5],[1,0.5]];portConstraint=eastwest;whiteSpace=wrap;html=1;" parent="L_-zKKLFFjSHP7eHTm17-38" vertex="1">
          <mxGeometry y="164" width="325" height="26" as="geometry" />
        </mxCell>
        <mxCell id="L_-zKKLFFjSHP7eHTm17-49" value="findManager()" style="text;strokeColor=none;fillColor=none;align=left;verticalAlign=top;spacingLeft=4;spacingRight=4;overflow=hidden;rotatable=0;points=[[0,0.5],[1,0.5]];portConstraint=eastwest;whiteSpace=wrap;html=1;" parent="L_-zKKLFFjSHP7eHTm17-38" vertex="1">
          <mxGeometry y="190" width="325" height="26" as="geometry" />
        </mxCell>
        <mxCell id="L_-zKKLFFjSHP7eHTm17-48" value="addMagicianORG()" style="text;strokeColor=none;fillColor=none;align=left;verticalAlign=top;spacingLeft=4;spacingRight=4;overflow=hidden;rotatable=0;points=[[0,0.5],[1,0.5]];portConstraint=eastwest;whiteSpace=wrap;html=1;" parent="L_-zKKLFFjSHP7eHTm17-38" vertex="1">
          <mxGeometry y="216" width="325" height="26" as="geometry" />
        </mxCell>
        <mxCell id="L_-zKKLFFjSHP7eHTm17-47" value="addMusicBandORG()" style="text;strokeColor=none;fillColor=none;align=left;verticalAlign=top;spacingLeft=4;spacingRight=4;overflow=hidden;rotatable=0;points=[[0,0.5],[1,0.5]];portConstraint=eastwest;whiteSpace=wrap;html=1;" parent="L_-zKKLFFjSHP7eHTm17-38" vertex="1">
          <mxGeometry y="242" width="325" height="26" as="geometry" />
        </mxCell>
        <mxCell id="L_-zKKLFFjSHP7eHTm17-46" value="addStandUpComedyORG()" style="text;strokeColor=none;fillColor=none;align=left;verticalAlign=top;spacingLeft=4;spacingRight=4;overflow=hidden;rotatable=0;points=[[0,0.5],[1,0.5]];portConstraint=eastwest;whiteSpace=wrap;html=1;" parent="L_-zKKLFFjSHP7eHTm17-38" vertex="1">
          <mxGeometry y="268" width="325" height="26" as="geometry" />
        </mxCell>
        <mxCell id="L_-zKKLFFjSHP7eHTm17-45" value="deleteMagician()" style="text;strokeColor=none;fillColor=none;align=left;verticalAlign=top;spacingLeft=4;spacingRight=4;overflow=hidden;rotatable=0;points=[[0,0.5],[1,0.5]];portConstraint=eastwest;whiteSpace=wrap;html=1;" parent="L_-zKKLFFjSHP7eHTm17-38" vertex="1">
          <mxGeometry y="294" width="325" height="26" as="geometry" />
        </mxCell>
        <mxCell id="L_-zKKLFFjSHP7eHTm17-52" value="deleteComedian()" style="text;strokeColor=none;fillColor=none;align=left;verticalAlign=top;spacingLeft=4;spacingRight=4;overflow=hidden;rotatable=0;points=[[0,0.5],[1,0.5]];portConstraint=eastwest;whiteSpace=wrap;html=1;" parent="L_-zKKLFFjSHP7eHTm17-38" vertex="1">
          <mxGeometry y="320" width="325" height="26" as="geometry" />
        </mxCell>
        <mxCell id="L_-zKKLFFjSHP7eHTm17-51" value="deleteMusicBand()" style="text;strokeColor=none;fillColor=none;align=left;verticalAlign=top;spacingLeft=4;spacingRight=4;overflow=hidden;rotatable=0;points=[[0,0.5],[1,0.5]];portConstraint=eastwest;whiteSpace=wrap;html=1;" parent="L_-zKKLFFjSHP7eHTm17-38" vertex="1">
          <mxGeometry y="346" width="325" height="26" as="geometry" />
        </mxCell>
        <mxCell id="L_-zKKLFFjSHP7eHTm17-53" value="RoomBooking" style="swimlane;fontStyle=1;align=center;verticalAlign=top;childLayout=stackLayout;horizontal=1;startSize=26;horizontalStack=0;resizeParent=1;resizeParentMax=0;resizeLast=0;collapsible=1;marginBottom=0;whiteSpace=wrap;html=1;" parent="1" vertex="1">
          <mxGeometry x="100" y="181" width="160" height="216" as="geometry" />
        </mxCell>
        <mxCell id="L_-zKKLFFjSHP7eHTm17-54" value="checkin : Date" style="text;strokeColor=none;fillColor=none;align=left;verticalAlign=top;spacingLeft=4;spacingRight=4;overflow=hidden;rotatable=0;points=[[0,0.5],[1,0.5]];portConstraint=eastwest;whiteSpace=wrap;html=1;" parent="L_-zKKLFFjSHP7eHTm17-53" vertex="1">
          <mxGeometry y="26" width="160" height="26" as="geometry" />
        </mxCell>
        <mxCell id="L_-zKKLFFjSHP7eHTm17-59" value="checkout : Date" style="text;strokeColor=none;fillColor=none;align=left;verticalAlign=top;spacingLeft=4;spacingRight=4;overflow=hidden;rotatable=0;points=[[0,0.5],[1,0.5]];portConstraint=eastwest;whiteSpace=wrap;html=1;" parent="L_-zKKLFFjSHP7eHTm17-53" vertex="1">
          <mxGeometry y="52" width="160" height="26" as="geometry" />
        </mxCell>
        <mxCell id="L_-zKKLFFjSHP7eHTm17-58" value="status : String" style="text;strokeColor=none;fillColor=none;align=left;verticalAlign=top;spacingLeft=4;spacingRight=4;overflow=hidden;rotatable=0;points=[[0,0.5],[1,0.5]];portConstraint=eastwest;whiteSpace=wrap;html=1;" parent="L_-zKKLFFjSHP7eHTm17-53" vertex="1">
          <mxGeometry y="78" width="160" height="26" as="geometry" />
        </mxCell>
        <mxCell id="L_-zKKLFFjSHP7eHTm17-57" value="cost : int" style="text;strokeColor=none;fillColor=none;align=left;verticalAlign=top;spacingLeft=4;spacingRight=4;overflow=hidden;rotatable=0;points=[[0,0.5],[1,0.5]];portConstraint=eastwest;whiteSpace=wrap;html=1;" parent="L_-zKKLFFjSHP7eHTm17-53" vertex="1">
          <mxGeometry y="104" width="160" height="26" as="geometry" />
        </mxCell>
        <mxCell id="L_-zKKLFFjSHP7eHTm17-60" value="location : String" style="text;strokeColor=none;fillColor=none;align=left;verticalAlign=top;spacingLeft=4;spacingRight=4;overflow=hidden;rotatable=0;points=[[0,0.5],[1,0.5]];portConstraint=eastwest;whiteSpace=wrap;html=1;" parent="L_-zKKLFFjSHP7eHTm17-53" vertex="1">
          <mxGeometry y="130" width="160" height="26" as="geometry" />
        </mxCell>
        <mxCell id="L_-zKKLFFjSHP7eHTm17-55" value="" style="line;strokeWidth=1;fillColor=none;align=left;verticalAlign=middle;spacingTop=-1;spacingLeft=3;spacingRight=3;rotatable=0;labelPosition=right;points=[];portConstraint=eastwest;strokeColor=inherit;" parent="L_-zKKLFFjSHP7eHTm17-53" vertex="1">
          <mxGeometry y="156" width="160" height="8" as="geometry" />
        </mxCell>
        <mxCell id="CcEaX48VEPUPv7ju-uAB-44" value="" style="endArrow=classic;html=1;rounded=0;entryX=0.421;entryY=0.054;entryDx=0;entryDy=0;entryPerimeter=0;" edge="1" parent="L_-zKKLFFjSHP7eHTm17-53" target="L_-zKKLFFjSHP7eHTm17-62">
          <mxGeometry width="50" height="50" relative="1" as="geometry">
            <mxPoint x="70" y="219" as="sourcePoint" />
            <mxPoint x="120" y="169" as="targetPoint" />
          </mxGeometry>
        </mxCell>
        <mxCell id="L_-zKKLFFjSHP7eHTm17-56" value="getTotalCost()" style="text;strokeColor=none;fillColor=none;align=left;verticalAlign=top;spacingLeft=4;spacingRight=4;overflow=hidden;rotatable=0;points=[[0,0.5],[1,0.5]];portConstraint=eastwest;whiteSpace=wrap;html=1;" parent="L_-zKKLFFjSHP7eHTm17-53" vertex="1">
          <mxGeometry y="164" width="160" height="26" as="geometry" />
        </mxCell>
        <mxCell id="L_-zKKLFFjSHP7eHTm17-61" value="addService()" style="text;strokeColor=none;fillColor=none;align=left;verticalAlign=top;spacingLeft=4;spacingRight=4;overflow=hidden;rotatable=0;points=[[0,0.5],[1,0.5]];portConstraint=eastwest;whiteSpace=wrap;html=1;" parent="L_-zKKLFFjSHP7eHTm17-53" vertex="1">
          <mxGeometry y="190" width="160" height="26" as="geometry" />
        </mxCell>
        <mxCell id="L_-zKKLFFjSHP7eHTm17-62" value="RoomsList" style="swimlane;fontStyle=1;align=center;verticalAlign=top;childLayout=stackLayout;horizontal=1;startSize=26;horizontalStack=0;resizeParent=1;resizeParentMax=0;resizeLast=0;collapsible=1;marginBottom=0;whiteSpace=wrap;html=1;" parent="1" vertex="1">
          <mxGeometry x="90" y="494" width="190" height="112" as="geometry" />
        </mxCell>
        <mxCell id="L_-zKKLFFjSHP7eHTm17-63" value="List&amp;lt;PSH_RoomType&amp;gt; : ArrayList" style="text;strokeColor=none;fillColor=none;align=left;verticalAlign=top;spacingLeft=4;spacingRight=4;overflow=hidden;rotatable=0;points=[[0,0.5],[1,0.5]];portConstraint=eastwest;whiteSpace=wrap;html=1;" parent="L_-zKKLFFjSHP7eHTm17-62" vertex="1">
          <mxGeometry y="26" width="190" height="26" as="geometry" />
        </mxCell>
        <mxCell id="L_-zKKLFFjSHP7eHTm17-66" value="nextRoomNumber : int" style="text;strokeColor=none;fillColor=none;align=left;verticalAlign=top;spacingLeft=4;spacingRight=4;overflow=hidden;rotatable=0;points=[[0,0.5],[1,0.5]];portConstraint=eastwest;whiteSpace=wrap;html=1;" parent="L_-zKKLFFjSHP7eHTm17-62" vertex="1">
          <mxGeometry y="52" width="190" height="26" as="geometry" />
        </mxCell>
        <mxCell id="L_-zKKLFFjSHP7eHTm17-64" value="" style="line;strokeWidth=1;fillColor=none;align=left;verticalAlign=middle;spacingTop=-1;spacingLeft=3;spacingRight=3;rotatable=0;labelPosition=right;points=[];portConstraint=eastwest;strokeColor=inherit;" parent="L_-zKKLFFjSHP7eHTm17-62" vertex="1">
          <mxGeometry y="78" width="190" height="8" as="geometry" />
        </mxCell>
        <mxCell id="L_-zKKLFFjSHP7eHTm17-65" value="createHallRoom()" style="text;strokeColor=none;fillColor=none;align=left;verticalAlign=top;spacingLeft=4;spacingRight=4;overflow=hidden;rotatable=0;points=[[0,0.5],[1,0.5]];portConstraint=eastwest;whiteSpace=wrap;html=1;" parent="L_-zKKLFFjSHP7eHTm17-62" vertex="1">
          <mxGeometry y="86" width="190" height="26" as="geometry" />
        </mxCell>
        <mxCell id="L_-zKKLFFjSHP7eHTm17-67" value="DeliveryAgent" style="swimlane;fontStyle=1;align=center;verticalAlign=top;childLayout=stackLayout;horizontal=1;startSize=26;horizontalStack=0;resizeParent=1;resizeParentMax=0;resizeLast=0;collapsible=1;marginBottom=0;whiteSpace=wrap;html=1;" parent="1" vertex="1">
          <mxGeometry x="910" y="200" width="250" height="138" as="geometry" />
        </mxCell>
        <mxCell id="L_-zKKLFFjSHP7eHTm17-68" value="city : String" style="text;strokeColor=none;fillColor=none;align=left;verticalAlign=top;spacingLeft=4;spacingRight=4;overflow=hidden;rotatable=0;points=[[0,0.5],[1,0.5]];portConstraint=eastwest;whiteSpace=wrap;html=1;" parent="L_-zKKLFFjSHP7eHTm17-67" vertex="1">
          <mxGeometry y="26" width="250" height="26" as="geometry" />
        </mxCell>
        <mxCell id="L_-zKKLFFjSHP7eHTm17-71" value="List&amp;lt;PSH_Restaurant_orders&amp;gt; : ArrayList" style="text;strokeColor=none;fillColor=none;align=left;verticalAlign=top;spacingLeft=4;spacingRight=4;overflow=hidden;rotatable=0;points=[[0,0.5],[1,0.5]];portConstraint=eastwest;whiteSpace=wrap;html=1;" parent="L_-zKKLFFjSHP7eHTm17-67" vertex="1">
          <mxGeometry y="52" width="250" height="26" as="geometry" />
        </mxCell>
        <mxCell id="L_-zKKLFFjSHP7eHTm17-69" value="" style="line;strokeWidth=1;fillColor=none;align=left;verticalAlign=middle;spacingTop=-1;spacingLeft=3;spacingRight=3;rotatable=0;labelPosition=right;points=[];portConstraint=eastwest;strokeColor=inherit;" parent="L_-zKKLFFjSHP7eHTm17-67" vertex="1">
          <mxGeometry y="78" width="250" height="8" as="geometry" />
        </mxCell>
        <mxCell id="L_-zKKLFFjSHP7eHTm17-70" value="addOrder()" style="text;strokeColor=none;fillColor=none;align=left;verticalAlign=top;spacingLeft=4;spacingRight=4;overflow=hidden;rotatable=0;points=[[0,0.5],[1,0.5]];portConstraint=eastwest;whiteSpace=wrap;html=1;" parent="L_-zKKLFFjSHP7eHTm17-67" vertex="1">
          <mxGeometry y="86" width="250" height="26" as="geometry" />
        </mxCell>
        <mxCell id="L_-zKKLFFjSHP7eHTm17-72" value="findOrder()" style="text;strokeColor=none;fillColor=none;align=left;verticalAlign=top;spacingLeft=4;spacingRight=4;overflow=hidden;rotatable=0;points=[[0,0.5],[1,0.5]];portConstraint=eastwest;whiteSpace=wrap;html=1;" parent="L_-zKKLFFjSHP7eHTm17-67" vertex="1">
          <mxGeometry y="112" width="250" height="26" as="geometry" />
        </mxCell>
        <mxCell id="CcEaX48VEPUPv7ju-uAB-79" style="edgeStyle=orthogonalEdgeStyle;rounded=0;orthogonalLoop=1;jettySize=auto;html=1;entryX=0.5;entryY=1;entryDx=0;entryDy=0;" edge="1" parent="1" source="L_-zKKLFFjSHP7eHTm17-73" target="L3UGM07HQzFSUhVb4tMJ-13">
          <mxGeometry relative="1" as="geometry" />
        </mxCell>
        <mxCell id="L_-zKKLFFjSHP7eHTm17-73" value="Person" style="swimlane;fontStyle=1;align=center;verticalAlign=top;childLayout=stackLayout;horizontal=1;startSize=26;horizontalStack=0;resizeParent=1;resizeParentMax=0;resizeLast=0;collapsible=1;marginBottom=0;whiteSpace=wrap;html=1;" parent="1" vertex="1">
          <mxGeometry x="595" y="500" width="160" height="138" as="geometry" />
        </mxCell>
        <mxCell id="L_-zKKLFFjSHP7eHTm17-74" value="name : String" style="text;strokeColor=none;fillColor=none;align=left;verticalAlign=top;spacingLeft=4;spacingRight=4;overflow=hidden;rotatable=0;points=[[0,0.5],[1,0.5]];portConstraint=eastwest;whiteSpace=wrap;html=1;" parent="L_-zKKLFFjSHP7eHTm17-73" vertex="1">
          <mxGeometry y="26" width="160" height="26" as="geometry" />
        </mxCell>
        <mxCell id="L_-zKKLFFjSHP7eHTm17-78" value="username : String" style="text;strokeColor=none;fillColor=none;align=left;verticalAlign=top;spacingLeft=4;spacingRight=4;overflow=hidden;rotatable=0;points=[[0,0.5],[1,0.5]];portConstraint=eastwest;whiteSpace=wrap;html=1;" parent="L_-zKKLFFjSHP7eHTm17-73" vertex="1">
          <mxGeometry y="52" width="160" height="26" as="geometry" />
        </mxCell>
        <mxCell id="L_-zKKLFFjSHP7eHTm17-77" value="password : String" style="text;strokeColor=none;fillColor=none;align=left;verticalAlign=top;spacingLeft=4;spacingRight=4;overflow=hidden;rotatable=0;points=[[0,0.5],[1,0.5]];portConstraint=eastwest;whiteSpace=wrap;html=1;" parent="L_-zKKLFFjSHP7eHTm17-73" vertex="1">
          <mxGeometry y="78" width="160" height="26" as="geometry" />
        </mxCell>
        <mxCell id="L_-zKKLFFjSHP7eHTm17-75" value="" style="line;strokeWidth=1;fillColor=none;align=left;verticalAlign=middle;spacingTop=-1;spacingLeft=3;spacingRight=3;rotatable=0;labelPosition=right;points=[];portConstraint=eastwest;strokeColor=inherit;" parent="L_-zKKLFFjSHP7eHTm17-73" vertex="1">
          <mxGeometry y="104" width="160" height="8" as="geometry" />
        </mxCell>
        <mxCell id="L_-zKKLFFjSHP7eHTm17-76" value="+ method(type): type" style="text;strokeColor=none;fillColor=none;align=left;verticalAlign=top;spacingLeft=4;spacingRight=4;overflow=hidden;rotatable=0;points=[[0,0.5],[1,0.5]];portConstraint=eastwest;whiteSpace=wrap;html=1;" parent="L_-zKKLFFjSHP7eHTm17-73" vertex="1">
          <mxGeometry y="112" width="160" height="26" as="geometry" />
        </mxCell>
        <mxCell id="CcEaX48VEPUPv7ju-uAB-26" style="edgeStyle=orthogonalEdgeStyle;rounded=0;orthogonalLoop=1;jettySize=auto;html=1;entryX=0;entryY=0.5;entryDx=0;entryDy=0;" edge="1" parent="1" source="CcEaX48VEPUPv7ju-uAB-1" target="L3UGM07HQzFSUhVb4tMJ-6">
          <mxGeometry relative="1" as="geometry" />
        </mxCell>
        <mxCell id="CcEaX48VEPUPv7ju-uAB-1" value="PSH_Business" style="swimlane;fontStyle=1;align=center;verticalAlign=top;childLayout=stackLayout;horizontal=1;startSize=26;horizontalStack=0;resizeParent=1;resizeParentMax=0;resizeLast=0;collapsible=1;marginBottom=0;whiteSpace=wrap;html=1;" vertex="1" parent="1">
          <mxGeometry x="650" y="-1010" width="270" height="268" as="geometry" />
        </mxCell>
        <mxCell id="CcEaX48VEPUPv7ju-uAB-2" value="list&amp;lt;Location&amp;gt; : ArrayList" style="text;strokeColor=none;fillColor=none;align=left;verticalAlign=top;spacingLeft=4;spacingRight=4;overflow=hidden;rotatable=0;points=[[0,0.5],[1,0.5]];portConstraint=eastwest;whiteSpace=wrap;html=1;" vertex="1" parent="CcEaX48VEPUPv7ju-uAB-1">
          <mxGeometry y="26" width="270" height="26" as="geometry" />
        </mxCell>
        <mxCell id="CcEaX48VEPUPv7ju-uAB-5" value="List&amp;lt;PSH_CustomerDirectory&amp;gt; : ArrayList" style="text;strokeColor=none;fillColor=none;align=left;verticalAlign=top;spacingLeft=4;spacingRight=4;overflow=hidden;rotatable=0;points=[[0,0.5],[1,0.5]];portConstraint=eastwest;whiteSpace=wrap;html=1;" vertex="1" parent="CcEaX48VEPUPv7ju-uAB-1">
          <mxGeometry y="52" width="270" height="26" as="geometry" />
        </mxCell>
        <mxCell id="CcEaX48VEPUPv7ju-uAB-3" value="" style="line;strokeWidth=1;fillColor=none;align=left;verticalAlign=middle;spacingTop=-1;spacingLeft=3;spacingRight=3;rotatable=0;labelPosition=right;points=[];portConstraint=eastwest;strokeColor=inherit;" vertex="1" parent="CcEaX48VEPUPv7ju-uAB-1">
          <mxGeometry y="78" width="270" height="8" as="geometry" />
        </mxCell>
        <mxCell id="CcEaX48VEPUPv7ju-uAB-4" value="addLocation()" style="text;strokeColor=none;fillColor=none;align=left;verticalAlign=top;spacingLeft=4;spacingRight=4;overflow=hidden;rotatable=0;points=[[0,0.5],[1,0.5]];portConstraint=eastwest;whiteSpace=wrap;html=1;" vertex="1" parent="CcEaX48VEPUPv7ju-uAB-1">
          <mxGeometry y="86" width="270" height="26" as="geometry" />
        </mxCell>
        <mxCell id="CcEaX48VEPUPv7ju-uAB-8" value="findserviceLocation()" style="text;strokeColor=none;fillColor=none;align=left;verticalAlign=top;spacingLeft=4;spacingRight=4;overflow=hidden;rotatable=0;points=[[0,0.5],[1,0.5]];portConstraint=eastwest;whiteSpace=wrap;html=1;" vertex="1" parent="CcEaX48VEPUPv7ju-uAB-1">
          <mxGeometry y="112" width="270" height="26" as="geometry" />
        </mxCell>
        <mxCell id="CcEaX48VEPUPv7ju-uAB-7" value="addUser()" style="text;strokeColor=none;fillColor=none;align=left;verticalAlign=top;spacingLeft=4;spacingRight=4;overflow=hidden;rotatable=0;points=[[0,0.5],[1,0.5]];portConstraint=eastwest;whiteSpace=wrap;html=1;" vertex="1" parent="CcEaX48VEPUPv7ju-uAB-1">
          <mxGeometry y="138" width="270" height="26" as="geometry" />
        </mxCell>
        <mxCell id="CcEaX48VEPUPv7ju-uAB-6" value="deleteCustomer()" style="text;strokeColor=none;fillColor=none;align=left;verticalAlign=top;spacingLeft=4;spacingRight=4;overflow=hidden;rotatable=0;points=[[0,0.5],[1,0.5]];portConstraint=eastwest;whiteSpace=wrap;html=1;" vertex="1" parent="CcEaX48VEPUPv7ju-uAB-1">
          <mxGeometry y="164" width="270" height="26" as="geometry" />
        </mxCell>
        <mxCell id="CcEaX48VEPUPv7ju-uAB-10" value="updateUser()" style="text;strokeColor=none;fillColor=none;align=left;verticalAlign=top;spacingLeft=4;spacingRight=4;overflow=hidden;rotatable=0;points=[[0,0.5],[1,0.5]];portConstraint=eastwest;whiteSpace=wrap;html=1;" vertex="1" parent="CcEaX48VEPUPv7ju-uAB-1">
          <mxGeometry y="190" width="270" height="26" as="geometry" />
        </mxCell>
        <mxCell id="CcEaX48VEPUPv7ju-uAB-9" value="findUserType()" style="text;strokeColor=none;fillColor=none;align=left;verticalAlign=top;spacingLeft=4;spacingRight=4;overflow=hidden;rotatable=0;points=[[0,0.5],[1,0.5]];portConstraint=eastwest;whiteSpace=wrap;html=1;" vertex="1" parent="CcEaX48VEPUPv7ju-uAB-1">
          <mxGeometry y="216" width="270" height="26" as="geometry" />
        </mxCell>
        <mxCell id="CcEaX48VEPUPv7ju-uAB-11" value="userExistsInSystem()" style="text;strokeColor=none;fillColor=none;align=left;verticalAlign=top;spacingLeft=4;spacingRight=4;overflow=hidden;rotatable=0;points=[[0,0.5],[1,0.5]];portConstraint=eastwest;whiteSpace=wrap;html=1;" vertex="1" parent="CcEaX48VEPUPv7ju-uAB-1">
          <mxGeometry y="242" width="270" height="26" as="geometry" />
        </mxCell>
        <mxCell id="CcEaX48VEPUPv7ju-uAB-28" style="edgeStyle=orthogonalEdgeStyle;rounded=0;orthogonalLoop=1;jettySize=auto;html=1;entryX=0.5;entryY=0;entryDx=0;entryDy=0;" edge="1" parent="1" source="CcEaX48VEPUPv7ju-uAB-12" target="L3UGM07HQzFSUhVb4tMJ-21">
          <mxGeometry relative="1" as="geometry" />
        </mxCell>
        <mxCell id="CcEaX48VEPUPv7ju-uAB-12" value="CustomerDirectory" style="swimlane;fontStyle=1;align=center;verticalAlign=top;childLayout=stackLayout;horizontal=1;startSize=26;horizontalStack=0;resizeParent=1;resizeParentMax=0;resizeLast=0;collapsible=1;marginBottom=0;whiteSpace=wrap;html=1;" vertex="1" parent="1">
          <mxGeometry x="220" y="-990" width="280" height="138" as="geometry" />
        </mxCell>
        <mxCell id="CcEaX48VEPUPv7ju-uAB-13" value="List&amp;lt;Customer&amp;gt; : ArrayList" style="text;strokeColor=none;fillColor=none;align=left;verticalAlign=top;spacingLeft=4;spacingRight=4;overflow=hidden;rotatable=0;points=[[0,0.5],[1,0.5]];portConstraint=eastwest;whiteSpace=wrap;html=1;" vertex="1" parent="CcEaX48VEPUPv7ju-uAB-12">
          <mxGeometry y="26" width="280" height="26" as="geometry" />
        </mxCell>
        <mxCell id="CcEaX48VEPUPv7ju-uAB-20" value="" style="line;strokeWidth=1;fillColor=none;align=left;verticalAlign=middle;spacingTop=-1;spacingLeft=3;spacingRight=3;rotatable=0;labelPosition=right;points=[];portConstraint=eastwest;strokeColor=inherit;" vertex="1" parent="CcEaX48VEPUPv7ju-uAB-12">
          <mxGeometry y="52" width="280" height="8" as="geometry" />
        </mxCell>
        <mxCell id="CcEaX48VEPUPv7ju-uAB-21" value="addcustomer()" style="text;strokeColor=none;fillColor=none;align=left;verticalAlign=top;spacingLeft=4;spacingRight=4;overflow=hidden;rotatable=0;points=[[0,0.5],[1,0.5]];portConstraint=eastwest;whiteSpace=wrap;html=1;" vertex="1" parent="CcEaX48VEPUPv7ju-uAB-12">
          <mxGeometry y="60" width="280" height="26" as="geometry" />
        </mxCell>
        <mxCell id="CcEaX48VEPUPv7ju-uAB-23" value="findcustomerUsername()" style="text;strokeColor=none;fillColor=none;align=left;verticalAlign=top;spacingLeft=4;spacingRight=4;overflow=hidden;rotatable=0;points=[[0,0.5],[1,0.5]];portConstraint=eastwest;whiteSpace=wrap;html=1;" vertex="1" parent="CcEaX48VEPUPv7ju-uAB-12">
          <mxGeometry y="86" width="280" height="26" as="geometry" />
        </mxCell>
        <mxCell id="CcEaX48VEPUPv7ju-uAB-22" style="text;strokeColor=none;fillColor=none;align=left;verticalAlign=top;spacingLeft=4;spacingRight=4;overflow=hidden;rotatable=0;points=[[0,0.5],[1,0.5]];portConstraint=eastwest;whiteSpace=wrap;html=1;" vertex="1" parent="CcEaX48VEPUPv7ju-uAB-12">
          <mxGeometry y="112" width="280" height="26" as="geometry" />
        </mxCell>
        <mxCell id="CcEaX48VEPUPv7ju-uAB-27" style="edgeStyle=orthogonalEdgeStyle;rounded=0;orthogonalLoop=1;jettySize=auto;html=1;entryX=0.999;entryY=0.081;entryDx=0;entryDy=0;entryPerimeter=0;" edge="1" parent="1" source="CcEaX48VEPUPv7ju-uAB-3" target="CcEaX48VEPUPv7ju-uAB-12">
          <mxGeometry relative="1" as="geometry" />
        </mxCell>
        <mxCell id="CcEaX48VEPUPv7ju-uAB-33" style="edgeStyle=orthogonalEdgeStyle;rounded=0;orthogonalLoop=1;jettySize=auto;html=1;entryX=0.5;entryY=0;entryDx=0;entryDy=0;" edge="1" parent="1" source="CcEaX48VEPUPv7ju-uAB-29" target="L3UGM07HQzFSUhVb4tMJ-8">
          <mxGeometry relative="1" as="geometry" />
        </mxCell>
        <mxCell id="CcEaX48VEPUPv7ju-uAB-29" value="EnterpriseCatalogDirectory" style="swimlane;fontStyle=1;align=center;verticalAlign=top;childLayout=stackLayout;horizontal=1;startSize=26;horizontalStack=0;resizeParent=1;resizeParentMax=0;resizeLast=0;collapsible=1;marginBottom=0;whiteSpace=wrap;html=1;" vertex="1" parent="1">
          <mxGeometry x="1085" y="-760" width="305" height="60" as="geometry" />
        </mxCell>
        <mxCell id="CcEaX48VEPUPv7ju-uAB-30" value="List&amp;lt;Enterprise_Catalog&amp;gt; : ArrayList" style="text;strokeColor=none;fillColor=none;align=left;verticalAlign=top;spacingLeft=4;spacingRight=4;overflow=hidden;rotatable=0;points=[[0,0.5],[1,0.5]];portConstraint=eastwest;whiteSpace=wrap;html=1;" vertex="1" parent="CcEaX48VEPUPv7ju-uAB-29">
          <mxGeometry y="26" width="305" height="26" as="geometry" />
        </mxCell>
        <mxCell id="CcEaX48VEPUPv7ju-uAB-32" value="" style="line;strokeWidth=1;fillColor=none;align=left;verticalAlign=middle;spacingTop=-1;spacingLeft=3;spacingRight=3;rotatable=0;labelPosition=right;points=[];portConstraint=eastwest;strokeColor=inherit;" vertex="1" parent="CcEaX48VEPUPv7ju-uAB-29">
          <mxGeometry y="52" width="305" height="8" as="geometry" />
        </mxCell>
        <mxCell id="CcEaX48VEPUPv7ju-uAB-35" style="edgeStyle=orthogonalEdgeStyle;rounded=0;orthogonalLoop=1;jettySize=auto;html=1;entryX=0.205;entryY=0;entryDx=0;entryDy=0;entryPerimeter=0;" edge="1" parent="1" source="CcEaX48VEPUPv7ju-uAB-30" target="L3UGM07HQzFSUhVb4tMJ-34">
          <mxGeometry relative="1" as="geometry" />
        </mxCell>
        <mxCell id="CcEaX48VEPUPv7ju-uAB-36" style="edgeStyle=orthogonalEdgeStyle;rounded=0;orthogonalLoop=1;jettySize=auto;html=1;entryX=0.564;entryY=-0.007;entryDx=0;entryDy=0;entryPerimeter=0;" edge="1" parent="1" source="CcEaX48VEPUPv7ju-uAB-30" target="L_-zKKLFFjSHP7eHTm17-38">
          <mxGeometry relative="1" as="geometry" />
        </mxCell>
        <mxCell id="CcEaX48VEPUPv7ju-uAB-37" value="" style="endArrow=classic;html=1;rounded=0;entryX=0.341;entryY=0.004;entryDx=0;entryDy=0;entryPerimeter=0;" edge="1" parent="1" target="L_-zKKLFFjSHP7eHTm17-3">
          <mxGeometry width="50" height="50" relative="1" as="geometry">
            <mxPoint x="640" y="-700" as="sourcePoint" />
            <mxPoint x="640" y="-680" as="targetPoint" />
          </mxGeometry>
        </mxCell>
        <mxCell id="CcEaX48VEPUPv7ju-uAB-39" value="" style="endArrow=none;html=1;rounded=0;entryX=-0.017;entryY=1.178;entryDx=0;entryDy=0;entryPerimeter=0;" edge="1" parent="1" target="CcEaX48VEPUPv7ju-uAB-30">
          <mxGeometry width="50" height="50" relative="1" as="geometry">
            <mxPoint x="640" y="-700" as="sourcePoint" />
            <mxPoint x="820" y="-390" as="targetPoint" />
          </mxGeometry>
        </mxCell>
        <mxCell id="CcEaX48VEPUPv7ju-uAB-41" value="" style="endArrow=classic;html=1;rounded=0;entryX=0.788;entryY=-0.001;entryDx=0;entryDy=0;entryPerimeter=0;" edge="1" parent="1" target="L_-zKKLFFjSHP7eHTm17-19">
          <mxGeometry width="50" height="50" relative="1" as="geometry">
            <mxPoint x="1100" y="-700" as="sourcePoint" />
            <mxPoint x="950" y="-380" as="targetPoint" />
          </mxGeometry>
        </mxCell>
        <mxCell id="CcEaX48VEPUPv7ju-uAB-43" value="" style="endArrow=classic;html=1;rounded=0;exitX=0.15;exitY=1.038;exitDx=0;exitDy=0;entryX=0.5;entryY=0;entryDx=0;entryDy=0;exitPerimeter=0;" edge="1" parent="1" source="L_-zKKLFFjSHP7eHTm17-28" target="L_-zKKLFFjSHP7eHTm17-53">
          <mxGeometry width="50" height="50" relative="1" as="geometry">
            <mxPoint x="710" y="-20" as="sourcePoint" />
            <mxPoint x="760" y="-70" as="targetPoint" />
          </mxGeometry>
        </mxCell>
        <mxCell id="CcEaX48VEPUPv7ju-uAB-46" value="Restaurant_orders" style="swimlane;fontStyle=1;align=center;verticalAlign=top;childLayout=stackLayout;horizontal=1;startSize=26;horizontalStack=0;resizeParent=1;resizeParentMax=0;resizeLast=0;collapsible=1;marginBottom=0;whiteSpace=wrap;html=1;" vertex="1" parent="1">
          <mxGeometry x="820" y="-480" width="190" height="216" as="geometry" />
        </mxCell>
        <mxCell id="CcEaX48VEPUPv7ju-uAB-47" value="id : String" style="text;strokeColor=none;fillColor=none;align=left;verticalAlign=top;spacingLeft=4;spacingRight=4;overflow=hidden;rotatable=0;points=[[0,0.5],[1,0.5]];portConstraint=eastwest;whiteSpace=wrap;html=1;" vertex="1" parent="CcEaX48VEPUPv7ju-uAB-46">
          <mxGeometry y="26" width="190" height="26" as="geometry" />
        </mxCell>
        <mxCell id="CcEaX48VEPUPv7ju-uAB-59" value="status : String" style="text;strokeColor=none;fillColor=none;align=left;verticalAlign=top;spacingLeft=4;spacingRight=4;overflow=hidden;rotatable=0;points=[[0,0.5],[1,0.5]];portConstraint=eastwest;whiteSpace=wrap;html=1;" vertex="1" parent="CcEaX48VEPUPv7ju-uAB-46">
          <mxGeometry y="52" width="190" height="26" as="geometry" />
        </mxCell>
        <mxCell id="CcEaX48VEPUPv7ju-uAB-58" value="details : String" style="text;strokeColor=none;fillColor=none;align=left;verticalAlign=top;spacingLeft=4;spacingRight=4;overflow=hidden;rotatable=0;points=[[0,0.5],[1,0.5]];portConstraint=eastwest;whiteSpace=wrap;html=1;" vertex="1" parent="CcEaX48VEPUPv7ju-uAB-46">
          <mxGeometry y="78" width="190" height="26" as="geometry" />
        </mxCell>
        <mxCell id="CcEaX48VEPUPv7ju-uAB-57" value="feedback : String" style="text;strokeColor=none;fillColor=none;align=left;verticalAlign=top;spacingLeft=4;spacingRight=4;overflow=hidden;rotatable=0;points=[[0,0.5],[1,0.5]];portConstraint=eastwest;whiteSpace=wrap;html=1;" vertex="1" parent="CcEaX48VEPUPv7ju-uAB-46">
          <mxGeometry y="104" width="190" height="26" as="geometry" />
        </mxCell>
        <mxCell id="CcEaX48VEPUPv7ju-uAB-62" value="PSH_customer object" style="text;strokeColor=none;fillColor=none;align=left;verticalAlign=top;spacingLeft=4;spacingRight=4;overflow=hidden;rotatable=0;points=[[0,0.5],[1,0.5]];portConstraint=eastwest;whiteSpace=wrap;html=1;" vertex="1" parent="CcEaX48VEPUPv7ju-uAB-46">
          <mxGeometry y="130" width="190" height="26" as="geometry" />
        </mxCell>
        <mxCell id="CcEaX48VEPUPv7ju-uAB-61" value="EnterCatag_Restaurant object" style="text;strokeColor=none;fillColor=none;align=left;verticalAlign=top;spacingLeft=4;spacingRight=4;overflow=hidden;rotatable=0;points=[[0,0.5],[1,0.5]];portConstraint=eastwest;whiteSpace=wrap;html=1;" vertex="1" parent="CcEaX48VEPUPv7ju-uAB-46">
          <mxGeometry y="156" width="190" height="26" as="geometry" />
        </mxCell>
        <mxCell id="CcEaX48VEPUPv7ju-uAB-60" value="deliveryAgent object" style="text;strokeColor=none;fillColor=none;align=left;verticalAlign=top;spacingLeft=4;spacingRight=4;overflow=hidden;rotatable=0;points=[[0,0.5],[1,0.5]];portConstraint=eastwest;whiteSpace=wrap;html=1;" vertex="1" parent="CcEaX48VEPUPv7ju-uAB-46">
          <mxGeometry y="182" width="190" height="26" as="geometry" />
        </mxCell>
        <mxCell id="CcEaX48VEPUPv7ju-uAB-48" value="" style="line;strokeWidth=1;fillColor=none;align=left;verticalAlign=middle;spacingTop=-1;spacingLeft=3;spacingRight=3;rotatable=0;labelPosition=right;points=[];portConstraint=eastwest;strokeColor=inherit;" vertex="1" parent="CcEaX48VEPUPv7ju-uAB-46">
          <mxGeometry y="208" width="190" height="8" as="geometry" />
        </mxCell>
        <mxCell id="CcEaX48VEPUPv7ju-uAB-51" style="edgeStyle=orthogonalEdgeStyle;rounded=0;orthogonalLoop=1;jettySize=auto;html=1;exitX=1;exitY=0.5;exitDx=0;exitDy=0;entryX=0.5;entryY=0;entryDx=0;entryDy=0;" edge="1" parent="1" source="L3UGM07HQzFSUhVb4tMJ-28" target="CcEaX48VEPUPv7ju-uAB-46">
          <mxGeometry relative="1" as="geometry" />
        </mxCell>
        <mxCell id="CcEaX48VEPUPv7ju-uAB-84" value="" style="endArrow=none;html=1;rounded=0;" edge="1" parent="1">
          <mxGeometry width="50" height="50" relative="1" as="geometry">
            <mxPoint x="780" y="140" as="sourcePoint" />
            <mxPoint x="1270" as="targetPoint" />
            <Array as="points">
              <mxPoint x="1240" y="140" />
              <mxPoint x="1240" />
            </Array>
          </mxGeometry>
        </mxCell>
        <mxCell id="CcEaX48VEPUPv7ju-uAB-101" style="edgeStyle=orthogonalEdgeStyle;rounded=0;orthogonalLoop=1;jettySize=auto;html=1;entryX=0.586;entryY=0.962;entryDx=0;entryDy=0;entryPerimeter=0;" edge="1" parent="1" source="CcEaX48VEPUPv7ju-uAB-86" target="L_-zKKLFFjSHP7eHTm17-28">
          <mxGeometry relative="1" as="geometry">
            <mxPoint x="280" y="130" as="targetPoint" />
            <Array as="points">
              <mxPoint x="270" y="296" />
              <mxPoint x="270" y="130" />
              <mxPoint x="279" y="130" />
            </Array>
          </mxGeometry>
        </mxCell>
        <mxCell id="CcEaX48VEPUPv7ju-uAB-86" value="TourService" style="swimlane;fontStyle=1;align=center;verticalAlign=top;childLayout=stackLayout;horizontal=1;startSize=26;horizontalStack=0;resizeParent=1;resizeParentMax=0;resizeLast=0;collapsible=1;marginBottom=0;whiteSpace=wrap;html=1;" vertex="1" parent="1">
          <mxGeometry x="320" y="214" width="160" height="164" as="geometry" />
        </mxCell>
        <mxCell id="CcEaX48VEPUPv7ju-uAB-87" value="name : String" style="text;strokeColor=none;fillColor=none;align=left;verticalAlign=top;spacingLeft=4;spacingRight=4;overflow=hidden;rotatable=0;points=[[0,0.5],[1,0.5]];portConstraint=eastwest;whiteSpace=wrap;html=1;" vertex="1" parent="CcEaX48VEPUPv7ju-uAB-86">
          <mxGeometry y="26" width="160" height="26" as="geometry" />
        </mxCell>
        <mxCell id="CcEaX48VEPUPv7ju-uAB-96" value="city : String" style="text;strokeColor=none;fillColor=none;align=left;verticalAlign=top;spacingLeft=4;spacingRight=4;overflow=hidden;rotatable=0;points=[[0,0.5],[1,0.5]];portConstraint=eastwest;whiteSpace=wrap;html=1;" vertex="1" parent="CcEaX48VEPUPv7ju-uAB-86">
          <mxGeometry y="52" width="160" height="26" as="geometry" />
        </mxCell>
        <mxCell id="CcEaX48VEPUPv7ju-uAB-95" value="username : String" style="text;strokeColor=none;fillColor=none;align=left;verticalAlign=top;spacingLeft=4;spacingRight=4;overflow=hidden;rotatable=0;points=[[0,0.5],[1,0.5]];portConstraint=eastwest;whiteSpace=wrap;html=1;" vertex="1" parent="CcEaX48VEPUPv7ju-uAB-86">
          <mxGeometry y="78" width="160" height="26" as="geometry" />
        </mxCell>
        <mxCell id="CcEaX48VEPUPv7ju-uAB-94" value="pwd: String" style="text;strokeColor=none;fillColor=none;align=left;verticalAlign=top;spacingLeft=4;spacingRight=4;overflow=hidden;rotatable=0;points=[[0,0.5],[1,0.5]];portConstraint=eastwest;whiteSpace=wrap;html=1;" vertex="1" parent="CcEaX48VEPUPv7ju-uAB-86">
          <mxGeometry y="104" width="160" height="26" as="geometry" />
        </mxCell>
        <mxCell id="CcEaX48VEPUPv7ju-uAB-88" value="" style="line;strokeWidth=1;fillColor=none;align=left;verticalAlign=middle;spacingTop=-1;spacingLeft=3;spacingRight=3;rotatable=0;labelPosition=right;points=[];portConstraint=eastwest;strokeColor=inherit;" vertex="1" parent="CcEaX48VEPUPv7ju-uAB-86">
          <mxGeometry y="130" width="160" height="8" as="geometry" />
        </mxCell>
        <mxCell id="CcEaX48VEPUPv7ju-uAB-89" value="addTourGuide()" style="text;strokeColor=none;fillColor=none;align=left;verticalAlign=top;spacingLeft=4;spacingRight=4;overflow=hidden;rotatable=0;points=[[0,0.5],[1,0.5]];portConstraint=eastwest;whiteSpace=wrap;html=1;" vertex="1" parent="CcEaX48VEPUPv7ju-uAB-86">
          <mxGeometry y="138" width="160" height="26" as="geometry" />
        </mxCell>
        <mxCell id="CcEaX48VEPUPv7ju-uAB-102" style="edgeStyle=orthogonalEdgeStyle;rounded=0;orthogonalLoop=1;jettySize=auto;html=1;entryX=1;entryY=0.5;entryDx=0;entryDy=0;" edge="1" parent="1" source="CcEaX48VEPUPv7ju-uAB-90" target="L_-zKKLFFjSHP7eHTm17-30">
          <mxGeometry relative="1" as="geometry">
            <mxPoint x="470" as="targetPoint" />
            <Array as="points">
              <mxPoint x="510" y="270" />
              <mxPoint x="500" y="270" />
              <mxPoint x="500" y="2" />
            </Array>
          </mxGeometry>
        </mxCell>
        <mxCell id="CcEaX48VEPUPv7ju-uAB-90" value="SafariService" style="swimlane;fontStyle=1;align=center;verticalAlign=top;childLayout=stackLayout;horizontal=1;startSize=26;horizontalStack=0;resizeParent=1;resizeParentMax=0;resizeLast=0;collapsible=1;marginBottom=0;whiteSpace=wrap;html=1;" vertex="1" parent="1">
          <mxGeometry x="390" y="450" width="160" height="164" as="geometry" />
        </mxCell>
        <mxCell id="CcEaX48VEPUPv7ju-uAB-91" value="name : String" style="text;strokeColor=none;fillColor=none;align=left;verticalAlign=top;spacingLeft=4;spacingRight=4;overflow=hidden;rotatable=0;points=[[0,0.5],[1,0.5]];portConstraint=eastwest;whiteSpace=wrap;html=1;" vertex="1" parent="CcEaX48VEPUPv7ju-uAB-90">
          <mxGeometry y="26" width="160" height="26" as="geometry" />
        </mxCell>
        <mxCell id="CcEaX48VEPUPv7ju-uAB-99" value="city : String" style="text;strokeColor=none;fillColor=none;align=left;verticalAlign=top;spacingLeft=4;spacingRight=4;overflow=hidden;rotatable=0;points=[[0,0.5],[1,0.5]];portConstraint=eastwest;whiteSpace=wrap;html=1;" vertex="1" parent="CcEaX48VEPUPv7ju-uAB-90">
          <mxGeometry y="52" width="160" height="26" as="geometry" />
        </mxCell>
        <mxCell id="CcEaX48VEPUPv7ju-uAB-98" value="username : String" style="text;strokeColor=none;fillColor=none;align=left;verticalAlign=top;spacingLeft=4;spacingRight=4;overflow=hidden;rotatable=0;points=[[0,0.5],[1,0.5]];portConstraint=eastwest;whiteSpace=wrap;html=1;" vertex="1" parent="CcEaX48VEPUPv7ju-uAB-90">
          <mxGeometry y="78" width="160" height="26" as="geometry" />
        </mxCell>
        <mxCell id="CcEaX48VEPUPv7ju-uAB-100" value="pwd: String" style="text;strokeColor=none;fillColor=none;align=left;verticalAlign=top;spacingLeft=4;spacingRight=4;overflow=hidden;rotatable=0;points=[[0,0.5],[1,0.5]];portConstraint=eastwest;whiteSpace=wrap;html=1;" vertex="1" parent="CcEaX48VEPUPv7ju-uAB-90">
          <mxGeometry y="104" width="160" height="26" as="geometry" />
        </mxCell>
        <mxCell id="CcEaX48VEPUPv7ju-uAB-92" value="" style="line;strokeWidth=1;fillColor=none;align=left;verticalAlign=middle;spacingTop=-1;spacingLeft=3;spacingRight=3;rotatable=0;labelPosition=right;points=[];portConstraint=eastwest;strokeColor=inherit;" vertex="1" parent="CcEaX48VEPUPv7ju-uAB-90">
          <mxGeometry y="130" width="160" height="8" as="geometry" />
        </mxCell>
        <mxCell id="CcEaX48VEPUPv7ju-uAB-93" value="addSafariService()" style="text;strokeColor=none;fillColor=none;align=left;verticalAlign=top;spacingLeft=4;spacingRight=4;overflow=hidden;rotatable=0;points=[[0,0.5],[1,0.5]];portConstraint=eastwest;whiteSpace=wrap;html=1;" vertex="1" parent="CcEaX48VEPUPv7ju-uAB-90">
          <mxGeometry y="138" width="160" height="26" as="geometry" />
        </mxCell>
        <mxCell id="CcEaX48VEPUPv7ju-uAB-112" style="edgeStyle=orthogonalEdgeStyle;rounded=0;orthogonalLoop=1;jettySize=auto;html=1;entryX=1;entryY=0.5;entryDx=0;entryDy=0;" edge="1" parent="1" source="CcEaX48VEPUPv7ju-uAB-103" target="L_-zKKLFFjSHP7eHTm17-15">
          <mxGeometry relative="1" as="geometry" />
        </mxCell>
        <mxCell id="CcEaX48VEPUPv7ju-uAB-103" value="celebrationService" style="swimlane;fontStyle=1;align=center;verticalAlign=top;childLayout=stackLayout;horizontal=1;startSize=26;horizontalStack=0;resizeParent=1;resizeParentMax=0;resizeLast=0;collapsible=1;marginBottom=0;whiteSpace=wrap;html=1;" vertex="1" parent="1">
          <mxGeometry x="780" y="400" width="160" height="112" as="geometry" />
        </mxCell>
        <mxCell id="CcEaX48VEPUPv7ju-uAB-104" value="id : String" style="text;strokeColor=none;fillColor=none;align=left;verticalAlign=top;spacingLeft=4;spacingRight=4;overflow=hidden;rotatable=0;points=[[0,0.5],[1,0.5]];portConstraint=eastwest;whiteSpace=wrap;html=1;" vertex="1" parent="CcEaX48VEPUPv7ju-uAB-103">
          <mxGeometry y="26" width="160" height="26" as="geometry" />
        </mxCell>
        <mxCell id="CcEaX48VEPUPv7ju-uAB-105" value="" style="line;strokeWidth=1;fillColor=none;align=left;verticalAlign=middle;spacingTop=-1;spacingLeft=3;spacingRight=3;rotatable=0;labelPosition=right;points=[];portConstraint=eastwest;strokeColor=inherit;" vertex="1" parent="CcEaX48VEPUPv7ju-uAB-103">
          <mxGeometry y="52" width="160" height="8" as="geometry" />
        </mxCell>
        <mxCell id="CcEaX48VEPUPv7ju-uAB-106" value="celebrationType : enum" style="text;strokeColor=none;fillColor=none;align=left;verticalAlign=top;spacingLeft=4;spacingRight=4;overflow=hidden;rotatable=0;points=[[0,0.5],[1,0.5]];portConstraint=eastwest;whiteSpace=wrap;html=1;" vertex="1" parent="CcEaX48VEPUPv7ju-uAB-103">
          <mxGeometry y="60" width="160" height="26" as="geometry" />
        </mxCell>
        <mxCell id="CcEaX48VEPUPv7ju-uAB-111" value="addService()" style="text;strokeColor=none;fillColor=none;align=left;verticalAlign=top;spacingLeft=4;spacingRight=4;overflow=hidden;rotatable=0;points=[[0,0.5],[1,0.5]];portConstraint=eastwest;whiteSpace=wrap;html=1;" vertex="1" parent="CcEaX48VEPUPv7ju-uAB-103">
          <mxGeometry y="86" width="160" height="26" as="geometry" />
        </mxCell>
        <mxCell id="CcEaX48VEPUPv7ju-uAB-113" style="edgeStyle=orthogonalEdgeStyle;rounded=0;orthogonalLoop=1;jettySize=auto;html=1;entryX=1.011;entryY=0;entryDx=0;entryDy=0;entryPerimeter=0;" edge="1" parent="1" source="CcEaX48VEPUPv7ju-uAB-107" target="L_-zKKLFFjSHP7eHTm17-35">
          <mxGeometry relative="1" as="geometry">
            <mxPoint x="1180" y="-30" as="targetPoint" />
            <Array as="points">
              <mxPoint x="1220" y="-30" />
            </Array>
          </mxGeometry>
        </mxCell>
        <mxCell id="CcEaX48VEPUPv7ju-uAB-107" value="RestaurantService" style="swimlane;fontStyle=1;align=center;verticalAlign=top;childLayout=stackLayout;horizontal=1;startSize=26;horizontalStack=0;resizeParent=1;resizeParentMax=0;resizeLast=0;collapsible=1;marginBottom=0;whiteSpace=wrap;html=1;" vertex="1" parent="1">
          <mxGeometry x="1210" y="200" width="160" height="60" as="geometry" />
        </mxCell>
        <mxCell id="CcEaX48VEPUPv7ju-uAB-108" value="menuItem: String" style="text;strokeColor=none;fillColor=none;align=left;verticalAlign=top;spacingLeft=4;spacingRight=4;overflow=hidden;rotatable=0;points=[[0,0.5],[1,0.5]];portConstraint=eastwest;whiteSpace=wrap;html=1;" vertex="1" parent="CcEaX48VEPUPv7ju-uAB-107">
          <mxGeometry y="26" width="160" height="26" as="geometry" />
        </mxCell>
        <mxCell id="CcEaX48VEPUPv7ju-uAB-109" value="" style="line;strokeWidth=1;fillColor=none;align=left;verticalAlign=middle;spacingTop=-1;spacingLeft=3;spacingRight=3;rotatable=0;labelPosition=right;points=[];portConstraint=eastwest;strokeColor=inherit;" vertex="1" parent="CcEaX48VEPUPv7ju-uAB-107">
          <mxGeometry y="52" width="160" height="8" as="geometry" />
        </mxCell>
        <mxCell id="CcEaX48VEPUPv7ju-uAB-118" style="edgeStyle=orthogonalEdgeStyle;rounded=0;orthogonalLoop=1;jettySize=auto;html=1;entryX=0.757;entryY=1.154;entryDx=0;entryDy=0;entryPerimeter=0;" edge="1" parent="1" source="CcEaX48VEPUPv7ju-uAB-114" target="L_-zKKLFFjSHP7eHTm17-51">
          <mxGeometry relative="1" as="geometry">
            <mxPoint x="1530" y="90" as="targetPoint" />
            <Array as="points">
              <mxPoint x="1560" y="99" />
              <mxPoint x="1521" y="99" />
            </Array>
          </mxGeometry>
        </mxCell>
        <mxCell id="CcEaX48VEPUPv7ju-uAB-114" value="TheatreService" style="swimlane;fontStyle=1;align=center;verticalAlign=top;childLayout=stackLayout;horizontal=1;startSize=26;horizontalStack=0;resizeParent=1;resizeParentMax=0;resizeLast=0;collapsible=1;marginBottom=0;whiteSpace=wrap;html=1;" vertex="1" parent="1">
          <mxGeometry x="1480" y="136" width="160" height="86" as="geometry" />
        </mxCell>
        <mxCell id="CcEaX48VEPUPv7ju-uAB-115" value="price : int" style="text;strokeColor=none;fillColor=none;align=left;verticalAlign=top;spacingLeft=4;spacingRight=4;overflow=hidden;rotatable=0;points=[[0,0.5],[1,0.5]];portConstraint=eastwest;whiteSpace=wrap;html=1;" vertex="1" parent="CcEaX48VEPUPv7ju-uAB-114">
          <mxGeometry y="26" width="160" height="26" as="geometry" />
        </mxCell>
        <mxCell id="CcEaX48VEPUPv7ju-uAB-116" value="" style="line;strokeWidth=1;fillColor=none;align=left;verticalAlign=middle;spacingTop=-1;spacingLeft=3;spacingRight=3;rotatable=0;labelPosition=right;points=[];portConstraint=eastwest;strokeColor=inherit;" vertex="1" parent="CcEaX48VEPUPv7ju-uAB-114">
          <mxGeometry y="52" width="160" height="8" as="geometry" />
        </mxCell>
        <mxCell id="CcEaX48VEPUPv7ju-uAB-117" value="TheatreServiveType: enum" style="text;strokeColor=none;fillColor=none;align=left;verticalAlign=top;spacingLeft=4;spacingRight=4;overflow=hidden;rotatable=0;points=[[0,0.5],[1,0.5]];portConstraint=eastwest;whiteSpace=wrap;html=1;" vertex="1" parent="CcEaX48VEPUPv7ju-uAB-114">
          <mxGeometry y="60" width="160" height="26" as="geometry" />
        </mxCell>
      </root>
    </mxGraphModel>
  </diagram>
</mxfile>
